<?xml version="1.0" standalone="no"?>
<!DOCTYPE svg PUBLIC "-//W3C//DTD SVG 20010904//EN"
 "http://www.w3.org/TR/2001/REC-SVG-20010904/DTD/svg10.dtd">
<svg version="1.0" xmlns="http://www.w3.org/2000/svg"
 width="771.000000pt" height="771.000000pt" viewBox="0 0 771.000000 771.000000"
 preserveAspectRatio="xMidYMid meet">
<metadata>
Created by potrace 1.11, written by Peter Selinger 2001-2013
</metadata>
<g transform="translate(0.000000,771.000000) scale(0.100000,-0.100000)"
fill="#000000" stroke="none">
<path d="M3725 7508 c-77 -66 -162 -138 -189 -161 -27 -23 -71 -61 -97 -83
l-47 -42 -1514 0 c-832 -1 -1534 -1 -1559 -1 l-47 -1 0 -3590 0 -3590 3594 0
c3416 0 3594 1 3595 18 1 25 1 7090 0 7132 l-1 35 -1555 -1 -1556 -2 -108 92
c-59 50 -128 107 -152 128 -47 39 -76 64 -124 106 -17 15 -46 39 -65 53 l-35
26 -140 -119z"/>
</g>
</svg>
