<svg id="map" xmlns="http://www.w3.org/2000/svg" viewBox="0 0 752.32 528.71"><defs><style>.cls-1,.cls-12{fill:#6baed6;}.cls-1,.cls-2,.cls-3,.cls-4,.cls-5,.cls-6,.cls-7{stroke:#fff;stroke-width:0.5px;}.cls-13,.cls-2{fill:#4292c6;}.cls-14,.cls-3{fill:#2171b5;}.cls-11,.cls-4{fill:#9ecae1;}.cls-15,.cls-5{fill:#084594;}.cls-6,.cls-9{fill:#eff3ff;}.cls-10,.cls-7{fill:#c6dbef;}.cls-8{fill:none;stroke:#000;}.cls-16,.cls-17{isolation:isolate;}.cls-16{font-size:10px;font-family:Helvetica;}.cls-17{font-size:16px;font-family:Avenir Next;}</style></defs><title>fallback</title><path class="cls-1" d="M316.61,420.6l2.87,1.3-5.23,11.92-0.59,3.5-3.9-2.3-1,2.2-2.36,4.31,0.66,1.4L305.35,448l-0.07,2.2-1.18,3.5,0.74,2.5,1.1,0.15,0.74-2.05,3.09,2.2-3.53.75-0.44.65,1.77,0.9v0.55l-3.39,1.7-0.44,1,1.32,2,0.22,1.85,1.84,0.65,0.52,1.5-1,2,0.66,1.6,1.69,1.35L307.12,478l-4.2,2-2.43,1.8,2.87,1.3-0.88,3.1v2.4l1.55,1.3-0.74,1.6,1,2,1.55,0.2,0.07,1.8,2.06-.3,1.69,3.7-0.59,2-0.44,2.9,2.21,1.65,1,4.81-0.74,3.2,2.58,1,0.22,1.5-1,1.6-3.24,1.6-2.5-1.25-2.94-.6-0.66,2.45,1.18,3.05L304,524.44l-9.2.3-29.66.75,0.74-5.66,0.44,0.05,1-3,1.69,0.3,5.37-12.57-1.18-1.9-1.32-.85-0.29-1.2-1.32-.1-1.91-.9,1-2.25,1.55-3.4-1.25-2.2-0.37-2.2-1.77-1.3-0.52-2.4,1.1-1.5-0.52-5.56-1,.7-1.77-.1v-5.86l2-.1,3.9-8.46,1.77,0.8,1.18-2.8,0.66-2.8-3.09-1.5,1.4-3-3-1.4-0.81,1.1-0.07.1-0.22.2-0.22.35-0.15.2-1.69,2.15-1.1,2.1-1.1.5-1.77-.9-3.31-3.35,2-3.6,1.1-1.05,2.13,0.2L266,453l1.62-.25,0.44-2.05-0.66-2.4,0.37-.5v-0.05l0.66-.6h0l2.94-.35,1.69-1.25,1.1,1.6-0.74,2.15,1.69,0.75,1.25-2.85,0.37-.7L277,446l0.22-.5,0.44-1.05,0.52-1,0.37-.9,2.21-5,1.47,0.55,0.81-1.05,0.15-.4,0.15-.3,0.07-.15,0.15-.3,0.15-.4,0.22-.4,0.52-1.25,0.29-.55,0.37-.8,0.07-.25-1.69-1,0.22-.4,0.59-1.3,0.07-.15,1.55-3.45,0.44-1,0.22,0.1,1.32,0.55,1,0.4,4.27,1.9,0.44-1v-0.1l0.07-.15v-0.15l0.07-.7,0.07-.35-0.07-.3,0.07-.3-0.07-.35v-0.35l0.07-.3v-0.7l0.07-.45v-0.1l0.07-.05v-0.25l0.07-.1v-0.05l0.29-.7,4,2,0.15-.25,0.07-.15,2.13-4.86,0.07-.15,0.07-.3-0.15-.05-0.22-.1V417.6h-0.15v-0.05H300V417.5H299.9l-0.74-.35-0.44-.2-0.29-.1-1.1-.6h-0.07l-0.15-.1-0.37-.15,0.15-.35,1.32-3.05,0.15-.25,0.37,0.15,0.15,0.1,0.66,0.25,0.15,0.05,0.07,0.05L300,413Z" transform="translate(0 -0.34)"/><path class="cls-2" d="M269.65,491.84l1.25,2.2-1.55,3.4-3.9-1.6,0.88,2.35-1.1.15-1-1.3-0.15,2.7-1.55-.65,0.29-4.71,1.62-.5,2.72,1.2,0.37-1.25-3.17-1.3,0.07-1.45,1.55,0.65,0.52-1.9,0.88,1.85Z" transform="translate(0 -0.34)"/><path class="cls-3" d="M363.28,369.49l-3.53-2.25L356.8,370l-1-.45-4,3.45,0.37,0.4-2.06,1.75-1,1.3-3.53,1.55-4.27.55-3.39.85-6.77,2.65-1.4-.35-3-2.85-1.1,2.2-0.81.25-3.75-1.7-2.43.85,1-1.9-1.18-.75,0.37-2.15,1.77-4.76,8.83,0.3,3-.7,3.53-1.2,3-1.5,3.31-2.45,2-2.05,3-4.31,1.4-3.15,2.06-8.31,0.07-3.3-1.32-12.77L349.07,324v-5.86l0.22-2.45,1-3.8,1.1-2.4,3.09-5.36,2.28-2.8,3.9-3.9,5.59-4.16,3.9-2.6,4-2.35,2.58-1.6,10.38-5.31,2.13-.85,3.53-2,2.72-1.85,3.31-3,5.37-3,4.27-1.6,2.13-.5,2.5-1.05,6.62-1.3,11.48-3.9,3.46-1,2.43-.05,0.52,11.61,0.29,1.2,0.22,0.8,0.74,1.4,4.49,8.26,0.88,1.4,0.59,0.75,2.58,3L456,295.7,453.82,298l-2.36,1-1.77-.05-2.13-1-1.25-1.5-1.47-2.8-2.72-2.75-16-7.31-0.74,2.55,0.81,2.4,1.1,0.9,2.8,0.65-3,.05-3.17,1.25-2.13,2.15-1.4,2.5-3.75,7.81-2.13,3.5-0.52,3.35-2.36,1.2-2.36,2-8.46,10.26-4,4.51-4,4.26-5.89,8.16-10,12.12Z" transform="translate(0 -0.34)"/><path class="cls-1" d="M387.5,383.76l-4.2,9.41-5.67-2.6-0.52,1.15-8.54-3.85,0.81-1.75-7.66-3.4-2.36.6-1.47.9-3.53-1.55-0.88,2.65-2.43-.85,0.22-.5,12-14.47,13.62-16.27,10-12.12,5.89-8.16,4-4.26,4-4.51,1.4,0.4,0.74-1.7,2.5,1-25,56.67Z" transform="translate(0 -0.34)"/><path class="cls-2" d="M549.95,328.89l-4-.6-4.93.3-31.87,2.25-2.65-.1,3.75-8.36L519.47,301l0.66-1.35-0.74-.3-0.22-.1-1.4-.55-0.22-.1-0.29-.15L517,298.4l-2.06-.9-0.22-.1-0.74-.3-0.07-.05L513,296.7l-0.07-.05-0.52-.15-0.15-.05h0l2.8-2.5,3.09-2.2,7.95-4.51,4.12-2.7,5.08-4,6.85-6.31,0.29-.25-0.22,1.1L545,290l0.81,5.61,3.24,17.87h1.84l-3.61,8.81,3,6.41Z" transform="translate(0 -0.34)"/><path class="cls-1" d="M433.21,458.35l8.61,4.36,7.51,3.35,0.81,0.4,2.36,1.05,0.44,0.2h0l0.44,0.2,0.59,0.25,0.37,0.1,0.29,0.05,0.22,1,0.59,2.7,0.29,1.4,0.07,0.45,0.37,1.7v0.05l0.07,0.4,0.22,1.05,0.07,6.26-0.52.05,0.59,3.25-1.1-.7-12.15-5.31h-1.84l-1.69-1.25L437,478l-10.82-4.76-0.44-.1-13.1-5.86-5.23-2.2-3,.05-5.08-2.25-1-.7-0.44.9-1-.4,1.62-4.66,0.44,0.1,2-4.56,0.07-.1,0.07,0.05h0l0.07-.15,0.15-.2,0.52-1.25,0.15-.35,0.15-.35,0.07-.05,0.15-.5,0.29-.6,0.29-.65,0.81-1.8,0.07-.1,0.07-.15,0.22-.6,1.1-2.55,0.07-.15,0.07-.1,0.07-.2,0.07-.1,0.15-.45,0.74-1.5,0.29-.75,0.29-.65,0.22-.6,0.29-.55,0.22-.5,0.22-.55,7.36,3.7,1,0.85,2.13,3.25,1.25,3.45,2.5,2.4,5,3.65Zm0,0h0Z" transform="translate(0 -0.34)"/><path class="cls-4" d="M529,436.57l-0.22.6-2.21,5.06-0.15.35-0.07.2,0.22,0.1,0.29,0.15,1.1,0.5,0.29,0.1,0.22,0.1,2.8,1.25-3.75,7.11L527,453l-2.5,3.5-3.75,3.4L519,461.06l-2.5,1.3-2.72,1-26.35,9.16,0.66,2.5,1,1.65,2.36,2.1-1.18,2.05-1.55,1.5h-4l-1-.6-0.22-2.25-1.55-.35-1.18,2.25-1.47,1.45-2.8,3.75-1.25.35-1.55-1.4-1.55-.15v1.1l-4.56,1.25-2.72,1.9-2.8.25-1.18-.4-1.55-2.05,0.52-1.25-1.4-.3,0.15-1.65-0.52-.7-1.62-.2-0.07-6.26L456.25,476l-0.07-.4v-0.05l-0.37-1.7-0.07-.45-0.29-1.4-0.59-2.7-0.22-1,1-.1,9.13-3.4,3.17-2,3.53-4.11,0.59-.7,0.29-.35,1.4-1.5,5.59-4.46,23.92-18.52,0.29-.15,0.22-.25,0.37-.25,2.36-1.8,9.2-7.16,5.15-3.8,1.77,3.2,1.91,1.85,5,3.05,2.58,1.4h0v0.05l-0.07.15-1.25,2.9v0.05l-0.07.1-0.07.2-0.59,1.35-0.15.35-0.15.3Z" transform="translate(0 -0.34)"/><path class="cls-3" d="M383.3,393.17l-2.06,4.61-2.87,5.66-3.53,3.9-3.68-1.05-0.15,2.9-3.68,8.16-24.07-10.61h0l-11.26-5-0.74-.35,0.81-1.9-2.36-1.05,1.91-4.31-4-1.8,1.1-2.55-4.64-2.1,0.88-2-2.36-1.65-2.58-1.2-2.21-1.85,0.88-.55,2.43-.85,3.75,1.7,0.81-.25,1.1-2.2,3,2.85,1.4,0.35,6.77-2.65,3.39-.85,4.27-.55,3.53-1.55,1-1.3,2.06-1.75-0.37-.4,4-3.45,1,0.45,2.94-2.8,3.53,2.25-12,14.47-0.22.5,2.43,0.85,0.88-2.65,3.53,1.55,1.47-.9,2.36-.6,7.66,3.4-0.81,1.75,8.54,3.85,0.52-1.15Z" transform="translate(0 -0.34)"/><path class="cls-4" d="M547.89,470.52l-0.37.4-0.15.25-0.22.25-0.22.25-0.44.6-0.22.35L546,473l-0.37.7-0.29.5-0.29.6-0.74,1.3-0.29.55-0.22.4-0.29.5-0.07.3-0.07.1-0.07.3v0.1l-0.66,2-0.15.45,0.52,0.25,0.29,0.1-0.88,2.75-0.29.6-0.66,1.35-0.59,1.35-1,2.25-1.55,3.45-0.15.35-4.49.45-2.65.6-2.94,1.6-2.94-.6-5.59,1.5-1-.2-1.77-4.86,0.52-2,2.5-1.7,2.87-3.35,3.53-2.3,3.61-1.85,1.18-1.35,0.15-2.05-1.62-1.1-1.69-.15-3.61.75-1.32-1.5-0.15-2.75,0.37-1.5-1.4-3.15-1.47-2.05-2.06-1.9-1.1.05-3,3.65-7.51,3.25-3.9,2.8-3.24,2.85-5.3,2.2-2.72.15-2.36-2.1-1-1.65-0.66-2.5,26.35-9.16,2.72-1,2.5-1.3,1.69-1.15,3.75-3.4L527,453l0.52-.9,6.18-.9,3.68-.8,0.37-.05,3.39-.55h0.15l0.22-.05h0.15l1.25,0.1H543l0.15,0.05h0.15l0.22,0.05,2.72,1,5.52,2.9,0.15,0.1,2.72,2.2-0.15.35-0.29.7L549.51,468Z" transform="translate(0 -0.34)"/><path class="cls-1" d="M565.63,430.87l-0.44,1.05-0.15.4-1,2.3-0.07.2-9.27,21.28-2.72-2.2-0.15-.1-5.52-2.9-2.72-1-0.22-.05h-0.15l-0.15-.05h-0.15l-1.25-.1h-0.15l-0.22.05h-0.15l-3.39.55-0.37.05-3.68.8-6.18.9,3.75-7.11-2.8-1.25-0.22-.1-0.29-.1-1.1-.5-0.29-.15-0.22-.1,0.07-.2,0.15-.35,2.21-5.06,0.22-.6,0.81-1.8,0.15-.3,0.15-.35,0.59-1.35,0.07-.2,0.07-.1v-0.05l1.25-2.9,0.07-.15v-0.05l3.09,0.85,3-.3,2.58-1.3,1.55-1.35,1.47-1.75,2.94-3.35,1.25-1.45,4.12-4.91,2.06-2.45,13.84-16,10.38,4.56Z" transform="translate(0 -0.34)"/><path class="cls-1" d="M535.23,430.17l-3.09-.85h0l-2.58-1.4-5-3.05L522.64,423l-1.77-3.2,6.77-5.26,5.67-4.56,23-17.77,2.21,1,0.66,0.3,4.86,2.05,0.59,0.25,3.46,1.5-13.84,16-2.06,2.45L548,420.65l-1.25,1.45-2.94,3.35-1.47,1.75-1.55,1.35-2.58,1.3Z" transform="translate(0 -0.34)"/><path class="cls-4" d="M607.8,414.65h0l-0.22.65-0.29.7-1.62,1.8-0.15.2-0.44.65-0.22.3-1.32,2-0.07.2-0.29.4-0.44.7-0.59.9-0.29.45-0.81,1.2-0.59,1-0.07.1-0.52,1-0.22.6h0l-0.29.75-0.29.65-0.22.6-0.29.8-0.15.55-0.07.4-0.15.65h0l-0.15.6-0.66,3-0.07.45-0.07.55-0.07.6-0.15.45-0.29,1-0.07.15-1.1,1.05-2.65.55-1.18,2.1-5.82-2.5-0.22-.1-0.81-.4-0.59-.2-6.18-2.7-0.07-.05-0.66-.3-0.15-.1-0.74-.3v-0.05l-1.69-.75-0.15-.1-0.37-.15-0.44-.2-1.4-.6-0.15-.1-0.22-.05-0.15-.1-0.22-.1-2-.9-0.22-.05-3.46-1.5-0.22-.1-0.15-.1,12.81-29-10.38-4.56,1.91-2.2,2.13-2.45,2.13-2.3,2.87-2.85,2.13-2,0.88-.75,1.55-1.25,1.1-.85,3.39-2.5,13.1-9.71,0.15,1.1,1.91-1,3.83,1.2,1-.5,0.59-1.75,1.1-1.1,1.47,1.8,8,3.55-2.06,5L615,380.5l1,3.5,3.9,1.5-2.21,4.91-0.59,2,0.52,0.65-2.65,6.51-0.22,1.05-3.24,7.26-2.36,7.21-0.07.1Z" transform="translate(0 -0.34)"/><path class="cls-5" d="M596.17,439.73l-0.29.65-0.59,1.15L595,442l-0.15.3-0.52,1.2-1.1-.5-1.55-.6v-0.05l1.18-2.1,2.65-.55,1.1-1.05h0l-0.07.2Z" transform="translate(0 -0.34)"/><path class="cls-6" d="M568.06,397.28l-3.46-1.5-0.59-.25-4.86-2.05-0.66-.3-2.21-1L570,381.61l2.94-2.1,5.3-3.3,5.15-2.85,1.4,1.6-1.84,1.3,3.17,3.85-3.39,2.5-1.1.85-1.55,1.25-0.88.75-2.13,2-2.87,2.85-2.13,2.3L570,395.07Z" transform="translate(0 -0.34)"/><path class="cls-6" d="M667.13,348.41l0.81-1.7,2.43-3.55,0.66-2.8,0.07,1.3-1,2.05,2.13,0.75-1.55,3.35L668,346.76l11,4.76,2.43-5.46,16.86,7.46,0.52-.75,1,0.45-1.62,3.8-1.18-.45-1.1,2.4,3.61,1.55-13,28.89-7.29-3.15,1.69-3.8-2.28-1,2.13-4.81,2.36,1,1-2.15,4,1.85,0.74-1.6-1.47-.6,1.1-2.1-8.61-3.8-0.07-2.35,2.72-6.36-1.4-.55,0.52-1.15-1.32-.4-0.66,1.75-2-.7-1.47-2,1.25-.8-0.66-1.1-2.43,1.5L676,353v1.2l3.24,1.3,0.74-1.7-3.24-1.3-0.22.5-4.49-2ZM650.94,335.3l-0.74.85-1.69.05,0.52,1.5-0.52,2.2-7.8-.65-6.48-.3-0.37,1.1-1-1.35-1.55,1.7-0.44,1.5-5.37,5.26-1.18.15-2.94,2.45-1.18,1.7,2.58,1.45-0.88,3.3,1.55,0.55-1.47,4,15.83,6.91-2.65,6.26L641,376.4l-3,6.91-1.55-1.9-1.84-.25-1.62-2-1.91-.85-3.17.1,0.29,2.4-8.39-3.65-4.49,1.55,2.06-5-8-3.55-1.47-1.8-1.1,1.1-0.59,1.75-1,.5-3.83-1.2-1.91,1-0.15-1.1,9.35-6.91,2.43-2.15,0.07-.05,0.07-.1,0.07-.05,0.44-.45,2.5-2.8,0.88-1.25,1.18-1.8,2.36-3.8,1.84-2.7,1.4-1.75,0.22-.3,1.91-2,2.5-2.2,6.26-4.76,17.89-2.2Zm-13.47,2.4,0.15,1.15,0.88-.05-0.22-1.25Z" transform="translate(0 -0.34)"/><path class="cls-4" d="M318.89,375.7l-0.37,2.15,1.18,0.75-1,1.9-0.88.55,2.21,1.85,2.58,1.2,2.36,1.65-0.88,2,4.64,2.1-1.1,2.55,4,1.8-1.91,4.31,2.36,1.05-0.81,1.9,0.74,0.35-1.18,2.75-3.09-1.4-0.88,1.9-3-1.35,1.32-2.75-4.34-2-1.25,2.8-4.56-2.1-1.1,2.45,1,0.45-1.84,4.21,6,2.55,0.44-1,2.36,1,0.52-.9,2.5,1.05-1.55,3.45-2.8,1-1.84,1.75-2.06,5L300,413h0l-0.52-7.46,0.22-.1,3.61-8.06-4.93-2.25-0.81,1.75-1.25-.6h0l4.49-9.71,0.88,1.55,8.32,3.7,3-6.91-0.29-2.3,2.28-5.21-1-.45v-0.1l0.15-1.15Z" transform="translate(0 -0.34)"/><path class="cls-6" d="M299.46,405.59l-0.07-.2-0.15-.35-2.72-6.31-0.22-2.4,1.25,0.6,0.81-1.75,4.93,2.25-3.61,8.06Z" transform="translate(0 -0.34)"/><path class="cls-5" d="M413.55,386.76h0Zm0,0,0.29-1.7-0.37-2.6,3.9-9.26-1.69-1.6-3.09-1.05-1-1.2,0.44-1.85-0.37-1.5,1.77-.9,1.62,0.4-0.66-2.4V361l0.81-1.9,1-4.91,0.74-1.4,0.15-2.5-0.66-1.35-2.94-2.2-0.74-1.35v-2l-1-1.9,1-3.45,1.69-2.5,3.9-3.25,3.9-.35,0.81,1.55,2.21,1.9,1.18,3.2,1.62,1.8,3.53,2.1,2.94,0.4,4.71,1.15-0.15,4.41,1,1.9-1.32.75-1.18,2.7,1.84,0.85-1.77,4v0.05l-0.15.35-0.07.2-0.07.15-0.07.25-0.15.15-2.72-1.15-1.69,1.25,0.29,0.6,3.24,1.4-0.07.15-3.53,7.71,4.64,2.3,2.43,1.5-0.59,4.21,2.72,1.1,1.69-.7,1.25-2,3.83,1.7,0.81-1.5-4-2,1.4-3.05,3.75,2.85,1.84-4.41,2.28,2.15,3.09,1.05,1.4,1.7,0.59,1.35-0.29,1.4L458,379.9l-1.25,1.15-3.46,2.15-2.72,1.05-2.72.2-1.18.5L446,387.71l1.47,2.2,1,0.1,8.1-5.56,5-1.65,3.24,1v0.1l-2.5,5.51-2.58,3.9-1.84,1.6-3.31,1.8-4.42.7-3.09-.25-8.54-1.75-3.39-1.65-4-2.6-2-1.75-1.32-.5-4-.3-4.34-1.8-1.25-.25-0.88-.15h-0.66l-0.81.05Z" transform="translate(0 -0.34)"/><path class="cls-2" d="M308.15,367.29l-1.32,5.66-2.06,5-2.65,5.91-6.33.15,0.22,3.6,0.29,8.76h0l0.22,2.4,2.72,6.31,0.15,0.35,0.07,0.2L297,406,288,402l1.18-2.55-1.69-.35,0.15-.75,0.37-2.2v-1.05l-0.37-12.07,0.44-2,0.29-.9V379l-0.74-2.15-1-1.15-1-2.15-1.69-6.76,6.26-1.55,6-.25h0.22l3.31,0.35,3.17,1.35,2.72,0.1Z" transform="translate(0 -0.34)"/><path class="cls-4" d="M244,446.64l0.22-.25,0.81-.8,1.84,1.85,6.55,4.31,1.62,0.6-0.52-1.75,0.59-4.06,2.06-.2,2.72-1.1,2.8-2,2.58-3.45,1.1-3.2,0.22-2.05,0.15-5.91,0.22-2.1-0.66-4.61-2.06-9.41L263.62,411l-1.25-7.36-0.44-5.81,0.81-7.06,0.15-2.65,1.4-4.41,2.8-5.36,3.9-4.61,2.72-2.4,3.31-1.9,3.31-1.5,3.53-1.25,1.69,6.76,1,2.15,1,1.15,0.74,2.15v1.2l-0.29.9-0.44,2L288,395.12v1.05l-0.37,2.2-0.15.75,1.69,0.35L288,402l9.05,4,2.43-.45L300,413h0l-0.22-.1-0.07-.05-0.15-.05-0.66-.25-0.15-.1-0.37-.15-0.15.25-1.32,3.05-0.15.35,0.37,0.15,0.15,0.1h0.07l1.1,0.6,0.29,0.1,0.44,0.2,0.74,0.35H300v0.05h0.37v0.05h0.15v0.05l0.22,0.1,0.15,0.05-0.07.3-0.07.15-2.13,4.86-0.07.15-0.15.25-4-2-0.29.7v0.05l-0.07.1v0.25l-0.07.05v0.1l-0.07.45v0.7l-0.07.3v0.35l0.07,0.35-0.07.3,0.07,0.3-0.07.35-0.07.7v0.15l-0.07.15V427l-0.44,1-4.27-1.9-1-.4-1.32-.55-0.22-.1-0.44,1-1.55,3.45-0.07.15-0.59,1.3-0.22.4,1.69,1-0.07.25-0.37.8-0.29.55-0.52,1.25-0.22.4-0.15.4-0.15.3-0.07.15-0.15.3-0.15.4-0.81,1.05-1.47-.55-2.21,5-0.37.9-0.52,1-0.44,1.05L277,446l-0.22.55-0.37.7-1.25,2.85-1.69-.75,0.74-2.15-1.1-1.6-1.69,1.25-2.94.35h0l-0.66.6v0.05l-0.37.5,0.66,2.4-0.44,2.05L266,453l-1.62-.7-2.13-.2-1.1,1.05-2,3.6,3.31,3.35,1.77,0.9,1.1-.5,1.1-2.1,1.69-2.15,0.15-.2,0.22-.35,0.22-.2,0.07-.1,0.81-1.1,3,1.4-1.4,3,3.09,1.5-0.66,2.8-1.18,2.8-1.77-.8-0.15-.1-0.52-.2-0.44-.2-0.52-.2-0.29-.15-1.4-.6-3-2.35-3.17.75-4.56-1.6L256,458.7l0.88-1.4-3.39-1.5L250,453.6l-2.72-3.9-1.4-1.15Zm74.93-70.94-4.71.05L314,376.9V377l1,0.45-2.28,5.21L313,385l-3,6.91-8.32-3.7-0.88-1.55-4.49,9.71L296,387.56l-0.22-3.6,6.33-.15,2.65-5.91,2.06-5,1.32-5.66,4.42,0.7,5.74,1.55,2.36,1.4ZM244,446.64h0Z" transform="translate(0 -0.34)"/><path class="cls-4" d="M607.8,414.65l1.25,0.55,0.07-.1,7,3,3.83,2.15,5.81,2.4,3.09,1.5,3.24-7.41,6.7,3.3-1.77,3.9-1.1-.5-1.18,2.6,1.1,0.45-3.46,7.76,4.2,1.7-1.18.1,0.07,1.35-1,3.6-1.32,2.7,0.66,2.25-0.59,4.56-0.52.9-0.81-.5-2.06,8-5.59,12.82,1.91,0.85,1.18-.8,4.49,1.9-0.59,1.7-1,.15-6.7,4.46-2.13,2.4-2.43,2-5.23,2.55-0.59.6-0.59-.8-1.62.1-6.33-1.25-6.48-.9-4.64-2.7-1.91-.3-5.59,1-1.1-.25-7.21-3.15-3.46-1.65-1.1-1.5-0.22-1.5,0.37-4.71-1.1-2.55-5.52-3.7-8.54-4.81-3.46-2.6,9.27-21.28,0.07-.2,1-2.3,0.15-.4,0.44-1.05,0.15,0.1,0.22,0.1,3.46,1.5,0.22,0.05,2,0.9,0.22,0.1,0.15,0.1,0.22,0.05,0.15,0.1,1.4,0.6,0.44,0.2,0.37,0.15,0.15,0.1,1.69,0.75v0.05l0.74,0.3,0.15,0.1,0.66,0.3,0.07,0.05,6.18,2.7,0.59,0.2,0.81,0.4,0.22,0.1,5.82,2.5v0.05l1.55,0.6,1.1,0.5,0.52-1.2L595,442l0.29-.5,0.59-1.15,0.29-.65,0.37-.85,0.07-.2h0l0.07-.15,0.29-1,0.15-.45,0.07-.6,0.07-.55,0.07-.45,0.66-3,0.15-.6h0l0.15-.65,0.07-.4,0.15-.55,0.29-.8,0.22-.6,0.29-.65,0.29-.75h0l0.22-.6,0.52-1,0.07-.1,0.59-1,0.81-1.2,0.29-.45,0.59-.9,0.44-.7,0.29-.4,0.07-.2,1.32-2,0.22-.3,0.44-.65,0.15-.2,1.62-1.8,0.29-.7Zm0,0h0Z" transform="translate(0 -0.34)"/><path class="cls-4" d="M613.18,487.44l-0.88,1.15-0.81-.2-1.1,5,3.61,1.9,0.37,6.36-0.15,1.45-2.5,4.36-9.05-4.61-6.48,14.82-11.56.25-13.47.2-7.29.2-20.68.45-8.54.05-0.29-1.3-1.84-2,0.07-1.25,2.72-5.11,1.62-2.3,1.55-1.05,1.25-2-0.22-3.05-0.88-1.35-1.18-.4-1.55-3.4-2.21-2,4.49-.45,0.15-.35,1.55-3.45,1-2.25,0.59-1.35,0.66-1.35,0.29-.6,0.88-2.75-0.29-.1-0.52-.25,0.15-.45,0.66-2v-0.1l0.07-.3,0.07-.1,0.07-.3,0.29-.5,0.22-.4,0.29-.55,0.74-1.3,0.29-.6,0.29-.5L546,473l0.22-.4,0.22-.35,0.44-.6,0.22-.25,0.22-.25,0.15-.25,0.37-.4,1.62-2.5,4.71-10.86,0.29-.7,0.15-.35,3.46,2.6,8.54,4.81,5.52,3.7,1.1,2.55-0.37,4.71,0.22,1.5,1.1,1.5,3.46,1.65,7.21,3.15,1.1,0.25,5.59-1,1.91,0.3,4.64,2.7,6.48,0.9,6.33,1.25,1.62-.1Z" transform="translate(0 -0.34)"/><path class="cls-1" d="M389.7,378.85l-2.21,4.91-7.07-3.2,25-56.67-2.5-1-0.74,1.7-1.4-.4,8.46-10.26,2.36-2,2.36-1.2,5.23-1.25,6.62-1.2,2-.2,4.12,0.15,3.46,0.75,4.2,1.35-0.22.35-0.22.2-0.29.3-0.44.3-0.22.15-0.29.1-0.74.2-0.44.1h-0.22l-0.29.05-1.1.1h-0.37l-0.29.1-0.29.1-0.52.4-0.22.25-0.22.2-1.18.6h-0.15l-0.37.3-4,2.25-1.91-.3-3.53-1.8-2.28-2.05-1.84-.15-2.21.85-4.12,3.85,0.59,2.05-3.31,3.9-4,8.91,2.43,1.05-1,2.45,2.36,1.05-15.46,35-0.15.3Zm41.74-64.73h0ZM389.7,378.85h0Zm0,0h0Z" transform="translate(0 -0.34)"/><path class="cls-2" d="M389.7,378.85l3.24-7.36,0.15-.3,15.46-35-2.36-1.05,1-2.45-2.43-1.05,4-8.91,3.31-3.9-0.59-2.05,4.12-3.85,2.21-.85,1.84,0.15,2.28,2.05,3.53,1.8,1.91,0.3,4-2.25h0l1.55,0.1,8.24,4.36-1.69.85-2.43,3.75-2.65,3.4-2.36,1.9-2.72,1.45-2.36.9-4.64,1.05h0l-3.9.35-3.9,3.25-1.69,2.5-1,3.45,1,1.9v2l0.74,1.35,2.94,2.2,0.66,1.35-0.15,2.5-0.74,1.4-1,4.91-0.81,1.9v2.1l0.66,2.4-1.62-.4-1.77.9,0.37,1.5-0.44,1.85,1,1.2,3.09,1.05,1.69,1.6-3.9,9.26,0.37,2.6-0.29,1.7h-0.07l-4.27.75-2.28-.5-2.8-1.85-8.69-6-1.47-.45-3,.55-1.25-.45h0Z" transform="translate(0 -0.34)"/><path class="cls-7" d="M354.45,471.12l3.31,1.55,3.17,0.1,1.91-2.1v1.55l-1,2.25,0.22,1-1,1.6,0.37,0.45,1.18,0.4-0.15,2.8L357.54,492l-0.59,1.3-1.25,3-1.1-.4-0.37,1.25-0.88-.35-0.59,1.3,2,0.9,0.22-.5,0.74,0.3,0.22,0.1-0.44,1.15L355,501l2.13,0.5-2.28,5.26-2.28-.05-0.66,1.55-1.32,2.85-1.1-.35-1.18,2.65,0.66,1.5-0.37,1.2,0.15,3.9L348,523l-28.19.9-15.75.55,0.74-1.75-1.18-3.05,0.66-2.45,2.94,0.6,2.5,1.25,3.24-1.6,1-1.6-0.22-1.5-2.58-1,0.74-3.2-1-4.81-2.21-1.65,0.44-2.9,0.59-2-1.69-3.7-2.06.3-0.07-1.8-1.55-.2-1-2,0.74-1.6-1.55-1.3v-2.4l0.88-3.1,9.57,4.21,5.37-12.32-1.77-3.25,2.36-.45,2.28-2,2.94-.55-1-5.76,0.15-1.55,1.47-3.2L343,466.06l10.82,4.81Z" transform="translate(0 -0.34)"/><path class="cls-3" d="M413.48,386.76h0.07l2.28-.35,0.81-.05h0.66l0.88,0.15,1.25,0.25,4.34,1.8,4,0.3,1.32,0.5,2,1.75,4,2.6,3.39,1.65,8.54,1.75,3.09,0.25-0.29.35-0.29.35-1.18,1.65-0.15.15-0.07.1-0.15.2-0.22.3-0.07.1-0.15.1-0.07.1-0.15.1-0.07.05-0.15.1-0.15.1-0.66.35-0.15.05-0.22.1-0.22.1-0.22.1-0.15.1-0.29.1-0.22.1-0.15.05-0.15.1-0.15.05-0.22.1-0.22.1-0.15.1-0.66.3L443,403l-0.15.1-0.15.05-2.28,1-0.15.05v0.1L440,405.94l-0.07.35-0.22,1-0.07.55-0.59,2-0.15.25-0.15.3v0.25l-0.15.65v0.25l-0.07.25,0.07,0.05v0.1l0.07,0.4,0.07,0.35L438.8,413l0.07,0.25-0.07.2-0.07.35-0.07.15-0.22.25-0.22.25-0.15.3-0.22.25-0.29.35-0.15.25-0.07.2-0.07.25v1.15l0.15,1.7v0.3h0v0.1l-0.07.2-0.52.55-0.15.1-0.15.1-0.07.05-0.07.1-0.07.05-0.07.1v0.05l-0.07.1-0.07.1-0.07.1-1,2-0.07.1-0.07.1-0.07.15-0.07.15-1,1.4-0.88.1h-0.37l-0.15.05h-0.07l-0.15.05L432,425l-0.07.05-0.15.05v0.05l-0.44.3-0.07.05-0.07.05-0.29.25-0.15.1-0.37.65-0.07.15-0.59,1.35-0.07.1-0.44,1.15-0.15.2v0.1l-0.07.15-0.15.3v0.1l-0.07.3-0.07.15v0.1l-0.07.25v0.15l-2.06-1-0.37-.15-0.07-.1-0.15-.05-0.22-.05-0.15-.1-0.15-.05-0.37-.2-0.22-.05-0.15-.1-0.22-.1-0.15-.05-0.22-.1-0.22-.1h0l-0.22-.1-0.74-.3-0.15-.1-0.52-.2-0.22-.1-0.15-.05-1.55-.7-0.22-.05-2-.85-0.37-.15-0.15-.05-0.29-.15-2.43-1.05-0.59-.25-0.37-.2-6,13.37-1.84-1.2-1.1-1.25-0.29-.35-1-.5-0.59-.05-1.91-.4-1.1-.2-0.44-.1-2.58-.9-1-.6-0.74-.4L395.3,432l-0.22-.1-0.44-.3-1.69-1-0.44-.3-0.59-.4L385.14,425l-2.5-1.05h1.84l1.47-2.25,0.74-2.55,1.1-2,2.87-2.15,2.43-1.4,1.25-.2,0.74-1,1.18-3.7,1.18-1.25,1.84,0.8,0.66-1.35,2.43,0.45,4.27-9.56L404,396.72l0.37-.75-2.06-1-0.37.8-2.36-1.05,2.06-4.66,1.32,0.45,0.59-1.65,0.59-3.75,2.8,1.85,2.28,0.5Zm-11,21.48,0.15,1.2-1.18,1.8-2.13-1.45-1.18.25-1.77,3-0.37,1.4,3.24,1.1,7.21,3.2-0.07.6L404,425l3.39,1.25,3-6.91,1-.7,4.42-5.51-0.59-.25,2-4.61H413.7l-1.55,3.55-4.34-2-2.58.65,0.59-1.4-2.94-1.55Z" transform="translate(0 -0.34)"/><path class="cls-1" d="M433.21,458.35h0l-6-3-5-3.65-2.5-2.4-1.25-3.45-2.13-3.25-1-.85-7.36-3.7-0.07-.05,6-13.37,0.37,0.2,0.59,0.25,2.43,1.05,0.29,0.15,0.15,0.05,0.37,0.15,2,0.85,0.22,0.05,1.55,0.7,0.15,0.05,0.22,0.1,0.52,0.2,0.15,0.1,0.74,0.3,0.22,0.1h0l0.22,0.1,0.22,0.1,0.15,0.05,0.22,0.1,0.15,0.1,0.22,0.05,0.37,0.2,0.15,0.05,0.15,0.1,0.22,0.05,0.15,0.05,0.07,0.1,0.37,0.15,2.06,1,6.55,2.8,0.74,0.1,6.92,3.1v0.2l-5.89,13.17-0.29.2Z" transform="translate(0 -0.34)"/><path class="cls-4" d="M471.85,458.3l-0.37.45-3.53,4.11-3.17,2-9.13,3.4-1,.1-0.29-.05-0.37-.1-0.59-.25-0.44-.2h0l-0.44-.2-2.36-1.05-0.81-.4-7.51-3.35-8.61-4.36h0l3.39-7.66,0.29-.2,5.89-13.17L454,442.23l0.88-1.9,3.24,1.45,0.52-1.2,0.88,0.4,0.37-1,5.15,2.2-0.81,1.5-0.37,2.1-0.07,6.51,1.69,2,3.68,0.45,1,0.6Z" transform="translate(0 -0.34)"/><path class="cls-1" d="M332,401.78l11.26,5-2.28,5-4,9.36,2.8-1,0.88,0.6,11.56,4.86,2.36,1.35,2.72,1.15-0.44,1.05,4.93,2.15-0.81,1.9,5.23,2.3,0.29,0.35-1.62,3.55-0.74-.35-0.81,1.85-7.8-3.4-5.89,13.32-0.37,1.15L360,456.55l-3.24,7-2.87,7.31-0.07.05L343,466.06l2.13-4.86-3.75-1.65-1.4,3.25-2.72-1.45-11.78-5-0.74,1.85-1.47,3.2L323.16,463l1,5.76-2.94.55-2.28,2-2.36.45,1.77,3.25-5.37,12.32L303.36,483l-2.87-1.3,2.43-1.8,4.2-2,1.84-5.06-1.69-1.35L306.6,470l1-2-0.52-1.5-1.84-.65L305.06,464l-1.32-2,0.44-1,3.39-1.7v-0.55l-1.77-.9,0.44-.65,3.53-.75-3.09-2.2-0.74,2.05-1.1-.15-0.74-2.5,1.18-3.5,0.07-2.2,1.69-5.11-0.66-1.4,2.36-4.31,1-2.2,3.9,2.3,0.59-3.5,5.23-11.92-2.87-1.3,2.06-5,1.84-1.75,2.8-1,1.55-3.45-2.5-1.05-0.52.9-2.36-1-0.44,1-6-2.55,1.84-4.21-1-.45,1.1-2.45,4.56,2.1,1.25-2.8,4.34,2-1.32,2.75,3,1.35,0.88-1.9,3.09,1.4Z" transform="translate(0 -0.34)"/><path class="cls-7" d="M343,466.06l-18.25-7.86,0.74-1.85,11.78,5,2.72,1.45,1.4-3.25,3.75,1.65Z" transform="translate(0 -0.34)"/><path class="cls-3" d="M404.13,385.16l-0.59,3.75L403,390.57l-1.32-.45-2.06,4.66,2.36,1.05,0.37-.8,2.06,1-0.37.75,2.65,1.15-4.27,9.56-2.43-.45-0.66,1.35-1.84-.8-1.18,1.25-1.18,3.7-0.74,1-1.25.2-2.43,1.4-2.87,2.15-1.1,2L386,421.71,384.48,424h-1.84l-2.28-1.1-3.24-1.15-1-.45-2-1-0.37-.1-2-.85-0.66-.3-1.69-.75-0.66-.3-1.1-.5-0.29-.15,3.68-8.16,0.15-2.9,3.68,1.05,3.53-3.9,2.87-5.66,2.06-4.61,4.2-9.41,2.21-4.91h0L391,379.3l3-.55,1.47,0.45Z" transform="translate(0 -0.34)"/><path class="cls-4" d="M557.75,264.06l-0.15-.65,1-.35-0.74-1.7,0.52-.65,8.91-2.75-1.62-.65,1.32-3.1-4-1.75,0.29-.45,3.75,1.65,0.88-1.85,5.59,2.4,0.37-2.1,2.36,0.35v5.46l2.58-.8,1.62-6.36,3.83,1.65,0.59,1.5,1.25-.6,1,0.8,1.32-2.55-1.25-3.2,1.32-4.81,6.55,2.8-0.37.8,1.47,0.6,0.88-1.25,1,0.5,1.32-1.15,3.31-1.4,0.52,1.35,0.37-1.7,0.88,0.45,0.52-1.25,2,1,0.15-1.3,2,0.2,0.22-1.45,3.53-2.4,0.88-2.15,2.72-5.46,3.39-.15,0.07-.3-3.53.15,2.43-7-4.93-1.9,1-2.3,4,1.7-0.52-3.8,1.69,0.75,0.07-1.65,1.47,0.55,1,1.85-0.44.2,0.52,2.3,0.44-.45,1.4,1.85-0.74.25,1.1,2.15-1-.05-0.15,3.65-0.74,3.2,3.61,1,1.55,0.75,1.55,1.8-1.4,1.15-1-.4-1.55,5.31-1-.45,0.44,1.25-1.55-.75-1.84-.1-2.5-2.15-3.09,2.8-2.65,1.85-0.15.7-1.55.1-0.66.75,0.22,1.4-3.75.45v-0.55l-2.06.2-1,2.55,3.83,7.66-16.78-3.75-0.37-.7,1.91-2-6.4,3.55-4.27,1.65Z" transform="translate(0 -0.34)"/><path class="cls-1" d="M421.13,104l-0.15.2,3.09,3.8,1.55,1.4,3.24,4.16,0.59,1.7-1.69,4.36-1.25,2.7-3,2.9-3.31,2.4-2.43,2.1-1.62,2.05,0.66,1L420,134l0.88,0.75,0.15,2.7-0.88,1.8-1.62,1.8,0.29,6.71,0.88,2-0.66,3.7-5.89,9.36-2.36-2.65-2-3.2-0.74-2.1-3.68-4.46-2.28-.75h-0.07l1.32-25.08,0.88-15.47V100.8l0.59-3.7,1.77,0.7,6.18,0.2,2.8,1.65,2.28,1.7,3.09,3Z" transform="translate(0 -0.34)"/><path class="cls-1" d="M514.91,129.14l-1.84,1.15-0.29-.4-1.91,1.4-3.53,3.15L503,139.8l-3.83,5.81L492,153.77l-2.28,3.05-6.7,9.91-0.66.7-0.88.6-1.91.55h-0.66l-1.25-.25-18-5.61-3.31.35-1.91,2.05L454,169.84l-0.66,2-1.91,2.25L443,178.5l-2.28,1.4-7,5.16-6.77,5.21-4,4.36-7.14,5.71-2.5,2.85-3.75,4.66-2.87-6.41-0.07-.2-1.84-5.46-1.55-5.46-1.25-5.46-0.66-5.36L401,174.94v-3.5l1.1-21.78h0.07l2.28,0.75,3.68,4.46,0.74,2.1,2,3.2,2.36,2.65,5.89-9.36,0.66-3.7-0.88-2-0.29-6.71,1.62-1.8,0.88-1.8-0.15-2.7L420,134l-3.24-1.25-0.66-1,1.62-2.05,2.43-2.1,3.31-2.4,3-2.9,1.25-2.7,1.69-4.36,0.29,1.3,0.59,7.86-0.74,3.75,0.22,3.15,1.18,1.8,2.8,1.9,3.31,0.2,1.4-1.05,2.58-3.55,2.06-1.2,3.46-1.4,2.43,0.55,4,4.31,4.42,6.31,1.25,0.75,4.64,1.45,0.81-1.35,2.58,1.45,1.69-2.9,1.55-6.36,1.77-4.86,4.42-8.91,3.09-3.5,1.4-2.1,6.4,3.4,1.25-.15L491.8,118l-1.69,3.65,2.72,1.45-1,.7,0.74,0.85,5.37-3.85-0.66-1,7.29-5.21Z" transform="translate(0 -0.34)"/><path class="cls-2" d="M409.5,207.84h0l3.75-4.66,2.5-2.85,7.14-5.71,4-4.36,6.77-5.21,7-5.16,2.28-1.4,8.39-4.41,1.91-2.25,0.66-2,0.44-4.71,1.91-2.05,3.31-.35,18,5.61,1.25,0.25h0.66l1.91-.55,0.88-.6,0.66-.7,6.7-9.91,2.28-3.05,7.14-8.16L503,139.8l4.34-5.36,3.53-3.15,1.91-1.4,0.29,0.4,1.84-1.15,1.1,1.6-6.7,4.76,2.28,3.15-1.77,1.2,2,2.9-1.69,2-3-4.26-2.43,1.7,4.49,6.51-1.18,1.8-7.07-4.81-1,2.2,1.47,2-1.62,3.9,4.34,2.55,4.64,1.1,1.47,0.8-1.77,3.1-0.74-.6-1.1,2.85,11.26,8.21,2.5,1.7-4.27,5.41,7,3.1,0.37-.65,9.5,6.46,18,10-0.15,1.75,7.36,1.65,2.58,1.15,1,1.65-2.28.65-1.25-1.15-2.36-.25-0.15-.85-4.49-1.45-1,.6-2.43,8.86-1.4,4.31,1.25,0.3-2.28,2-0.15,1-1.77,3.05v1.65l0.66,2.5-1.18.7-1.69-4.61-2.06,2.1-2.87,2.15-3.09,1-1.77,1.85-1.32,2.4-0.81,3.05-11.7-4.11-11.92-5.86-2.5-1.65-1.1-1.65-4.78-2.45-0.81-3.7-0.74-.75-2.94.2-1.1-1-1.69-.45-6.11.9-1.55,1.3-0.74-.05-2.8-1.6-3.61-3.65-0.81-4.76-0.44-.75-3.09,2.85-1,2.3-0.29,2.2-1.47.5-9.57-1-8.76-.55-1.32.2-3,1.3-3.24,2.1-3.75,4.06-1.91,2.55-1.18.5-6.77,1.3-7.95,2.45-2,.4Z" transform="translate(0 -0.34)"/><path class="cls-2" d="M487.09,322.73l1.55,1.8,0.88,1.2,0.88,1.35,0.22,0.45-0.52-.1-7.21-1.65-0.22-.05-0.22-.05-0.37-.1-0.22.8-0.15.35-0.15.45-0.22.5-0.37.9-0.15.35-0.07.25-0.15.35-0.37.8-0.15.3v0.1l-0.15.3-0.15.35-0.15.15-0.22.25-0.15.2-0.74.65-0.37.3-0.29.25-0.22.2-0.22.25-0.15.2-2.36,5.31-2.06,1.75-2.5,1-2.21,1.45,0.29,2.2,0.81,2.6,3.39,3,5.08,7.06-0.29.3-3.68,8.41-0.07,1.75,0.52,0.9-2,1.55-1,1.65-1.47,3.2-2.58,3.6-2.28,4.16h0l-3.24-1-5,1.65-8.1,5.56-1-.1-1.47-2.2,0.66-2.75,1.18-.5,2.72-.2,2.72-1.05,3.46-2.15L458,379.9l1.62-2.5,0.29-1.4-0.59-1.35-1.4-1.7-3.09-1.05-2.28-2.15-1.84,4.41L447,371.29l-1.4,3.05,4,2-0.81,1.5-3.83-1.7-1.25,2-1.69.7-2.72-1.1,0.59-4.21L437.4,372l-4.64-2.3L436.3,362l0.07-.15-3.24-1.4-0.29-.6,1.69-1.25,2.72,1.15,0.15-.15,0.07-.25,0.07-.15,0.07-.2,0.15-.35v-0.05l1.77-4-1.84-.85,1.18-2.7,1.32-.75-1-1.9,0.15-4.41-4.71-1.15-2.94-.4-3.53-2.1-1.62-1.8-1.18-3.2-2.21-1.9-0.81-1.55,4.64-1.05,2.36-.9,2.72-1.45,2.36-1.9,2.65-3.4,2.43-3.75,1.69-.85,6.92-.05,3-.4,13.62-2.65,9.05-2.05,3.61-1.3Z" transform="translate(0 -0.34)"/><path class="cls-1" d="M456,295.7l15.6,11,1.1,0.8,1.1,1,3.61,3.65-3.61,1.3-9.05,2.05-13.62,2.65-3,.4-6.92.05L433,314.22l-1.55-.1h0l0.37-.3H432l1.18-.6,0.22-.2,0.22-.25,0.52-.4,0.29-.1,0.29-.1H435l1.1-.1,0.29-.05h0.22l0.44-.1,0.74-.2,0.29-.1,0.22-.15,0.44-.3,0.29-.3,0.22-.2,0.22-.35-4.2-1.35-3.46-.75-4.12-.15-2,.2-6.62,1.2-5.23,1.25,0.52-3.35,2.13-3.5,3.75-7.81,1.4-2.5,2.13-2.15,3.17-1.25,3-.05-2.8-.65-1.1-.9-0.81-2.4,0.74-2.55,16,7.31,2.72,2.75,1.47,2.8,1.25,1.5,2.13,1,1.77,0.05,2.36-1Z" transform="translate(0 -0.34)"/><path class="cls-7" d="M502.54,339.85l3.9-9.11,2.65,0.1L541,328.59,539.79,333l-2.43,5.41-3.75,8.71-13.91-4.61-5.59-1.75-5-.85Zm-13.18,30.44-10.6-1.45-3.39.25-1.18.5-0.52-.9,0.07-1.75,3.68-8.41,0.29-.3-5.08-7.06-3.39-3-0.81-2.6-0.29-2.2,2.21-1.45,2.5-1,2.06-1.75,2.36-5.31,0.15-.2,0.22-.25,0.22-.2,0.29-.25,0.37-.3,0.74-.65,0.15-.2,0.22-.25,0.15-.15,0.15-.35,0.15-.3v-0.1l0.15-.3,0.37-.8,0.15-.35,0.07-.25,0.15-.35,0.37-.9,0.22-.5,0.15-.45,0.15-.35,0.22-.8,0.37,0.1,0.22,0.05,0.22,0.05,7.21,1.65,0.52,0.1,0.15,0.2,1,2.05,0.07,0.15,0.37,1,0.81,2.05L498.13,349l-1.84,1.9-0.74,4.71-0.66,1.85Z" transform="translate(0 -0.34)"/><path class="cls-2" d="M498.13,349L493,332.94l-0.81-2.05-0.37-1-0.07-.15-1-2.05-0.15-.2-0.22-.45-0.88-1.35-0.88-1.2-1.55-1.8-9.64-10.61,5.81-2.85,3.17-1.3,2.5-.6,6.18-.75,5.52-1.5,3.83-2.05,2.5-1.9,5.23-4.71h0.07l0.15,0.05,0.52,0.15L513,296.7l0.88,0.35L514,297.1l0.74,0.3,0.22,0.1,2.06,0.9,0.29,0.05,0.29,0.15,0.22,0.1,1.4,0.55,0.22,0.1,0.74,0.3L519.47,301l-9.27,21.38-3.75,8.36-3.9,9.11-1.4,3.25-0.88,3.75Z" transform="translate(0 -0.34)"/><path class="cls-2" d="M244,446.64h0l1.91,1.9,0.37,1.9,1.18,2.3,2.13,3.05-2,1.15,0.07,1.2-0.88.4-0.15,1.55-0.74-.45-1.1-.8-0.66-.15-0.81-.65-0.59-.85-3.24-1.55-0.81-.6,0.44-1-1-.5-3.17,3.1,1.91-.15,2.06,1.25,0.59,1.15,1.32,4-0.15,4.41,1,3.3,0.29,3.55-0.44,2.9-3.17.9,0.44-.85-0.66-1.45,0.29-2.7-1.18-4.81-0.66-3.4-0.88-1-2,2.45-0.44,2.4-1,2-2.21,2-1.55,5,0.29,0.75-1.84.8-1.62,2-0.22,1.1-1.62.9,0.07,1.8-3.17.5-3,2.3-1.4-.1-0.22,1.15-1.25.9-2.5,5.31-0.88.85-0.52,2.35-1.18,1.2-0.37,2.75-1.18,2.35-1.84,2.65-1.47,3-0.07,4.26-0.66,1.45-0.15,3.8-2.13,1.05-0.44-.65-2.21,1.6-0.52,3.25-0.88,2.4-47.55.9h-3.83l5.37-7.21-0.74-.65,2.65-3.9-14.8-7-3.68,3.05-1.47,1.75-1.1,2.65-1.4,1.9-6.62,6.81-1.18,2.65-25.69.05-0.59-2.8,2.94,1.3L113,498.4,99.18,492.3l-6.4,14.27,7.21,3.25-5.81,12.77-1.91-.9-3.17.3-1.47-.5-0.52,1.6-0.52-.65-1,.75,0.59,0.75L84,525l-0.74-1.3L82.76,521l-2.28,2.2-0.59-.4-3.61,1.6,1,2.15,2.13-.6,0.52,1.1,2.06-.5-1.84,1.8-13,.05-33.49.4-0.44-.55,2-4.51-2.8-1.8-1.84,4.46-1.32-.45-4.12.05L22,524.44l-1.55-1.3-2-.8L16,520.08l1.84-1,0.66-1.9L23.07,516l0.88-1.9L26,513,29,508.82l4.27-4.36,3.39-1.8,8.83,4.21L52,498.45l2.87-1.75,2-1.85,5.23-4.41,2.8-1.15,2.36-1.9,1.47-1.8,4,1.2,1.55-.4,2.94-3.8,7.43,3.35L88,479l7,3.05,3-7,7,3.15,8.61-18.57-6-2.75,1.91-4.41,9.94-4.16L121.7,450l2.36,1.05,2.13-2.6,0.66,0.3,1.91-3.55-0.37-1.35-2.5-.6-0.44.75-2.36-.55-1.91-2.05,1.69-1.55,1.77-2.25,1.25-.25,1.62,1.15,1.91-2.5-0.74-.65-1.32,1.8-0.81-1,1.18-1.9-2-3.55L124.94,432l-0.37-1.15,1-.6-2.8-7.06-2.06-3.4-2.36-2.25-2.8-1.6,0.22-.55,1.47,0.7,0.29-.6,2.87,1.75,3.24-7.51,5.59-.9,3.31-.25-11,10.76,1.77,3.85,3.39,8.66,1.1-.55,1.1-1.8-1.18-.55,3.53-8.11,7.66-16.12,1.25-1,5.67,3.2,2.13,0.85,1.25-.1,1.84-1.3,2.58-.75,3.24-1.75,2.06-.25,1.47-1.35,2.65-3.3,4.12-3.45,1-2.1,0.15-3.55,3.68-5.21,1.55-4.51-0.07-2.1,0.52-1.6,0.44-4.56,1.1-3.15,4.78-6,1.62-1.45,1.18-3,2.21-1.75,2.94-1.65,2.94-5.46,1.62-4.26-1.47-.9,1.4-1.6,1.18,0.7,1.25-2.2,1.69-3.9,1.1-5.16,0.44-5.86,0.88-4.91,1.32-4.21,0.52-3.4-0.44-2.2,1-1.4,4.42,3.2,0.66,1.65-0.07,1.35-1.62,5.51-0.66,4.21,0.74,3.8-1,4.66,1.1,0.45-1.1,2.3-11.85,25.83,7.07,3.35,4.93-5,1.62-3.75,2.58-2,0.88-1.85,3.31,1.55,1.25-2.9,3.83,1v-1.15l1,0.05-0.15-2.1,1,1.35,2.65-2.25,1.32-.1,3.53-2.7,1-1.7,2.06,1.05,0.74-1.5,1.4,0.65,0.81-2.35-1.91-1.8-5.81-6.21-2.28-3.2-0.59-1.5-2.36-4.21-1.1-7.26-0.44-10.81,0.59-6.66-0.07-11.11-0.81-4.81-2.8-4.41-4.2-4.71-3.39-2.3-3.75-2.15-1.32-2.2-2.06-2.45L198.69,263l-2.5-2.15,1.69-1.6,1.32,1,2.87,3.3,1.69,3.2,1.69,2.3,9.64,6.26,5.37,6.51,2.06,1.3,2.13,2.35,0.74,1.35,6.18,7.91,3.31,3.2,3.31,4.51,2.43,2.85,1.77,2.9,1,3.85-0.07,3.15-1,6.51-0.74,3.55-0.15,2,0.59,8,0.88,5.66-1.1,3.05,1.1,3.45,0.52,2.65,0.22,3.2-0.37,3.65L242.2,361l-1.77,4.71-5.67,12.87-2.28,6-1.18,3.6-1.77,8.46-0.74,5.16-2.36,6.71-1.62,8.26,0.44,2.7,1.69,3.3,2.36,2.85,3.24,3.1,5.23,4,3.09,2.6,6.55,7.11,2.21,1.7,2.13,1.2,3.31,1.2-0.59,4.06,0.52,1.75-1.62-.6-6.55-4.31L245,445.59l-1.84-1.85-5.3-6-1.77-1-2.94-.15-2.21,1-5.3,5.31-3.46,1.85-5.81,1.8-3.46.45L214,449l-0.37,1.1,0.88,0.55,2.36-1.75,3.75,2.35,1.77-1.55v1.45l1.18,0.1v-1.6l2.13-1.75L230,445l1.69-.7,0.66-1,1.69-1.1,1.55,0.55,0.66-.45-0.37-3.05,1.55-.15,2.65,3.1-0.29.5,2,1.55ZM87.47,499.2l1.18,0.5,0.88-1.8-1.18-.55Zm115.2-199.3-1.32,3-0.88-4.11L202,298ZM244,446.64h0l0.22-.25Z" transform="translate(0 -0.34)"/><path class="cls-1" d="M388.09,243.73l1.4,1.4,33,15,3.46,0.55,11.26,0.6h-0.15l-2.43.05-3.46,1-11.48,3.9-6.62,1.3-2.5,1.05-2.13.5-4.27,1.6-5.37,3-3.31,3-2.72,1.85-3.53,2-2.13.85-10.38,5.31-2.58,1.6h0l-1.32-2.7-2.21-.35,0.15-1.5-0.66-.8,0.15-2.55-1.25-3.1h0v-0.05h0l0.07-.75-1.18-1.8v-0.85h0v-0.7h0V273l0.66-2.25-2.72-2.25L358.64,266h0l-0.15-.2,1.18-2.4-3.31.05L353,262.3l-3.17-2.6-2.8-3.8-2.28-1.45-2.43-.45-1.62.2,0.07,0.5L335,256.75l0.07,0.45-3,.1-1.84-.75,1.62-2.35,0.59-.15,1.62-2.9,1-2.45,0.52,0.4,1.4-1.65,1.25-3.25,0.07-1.55,1.25-2.5,1-1.05,0.88,0.45,0.44-1.7,2.43-3.8,0.81,0.65,1.62-2.45-0.37-.2,3.9-6.66,3.68,2.15-1.62,2.2-2,3.65-1.32,1.1-1.1,2.15,2.28,1.35,5,2,2.13,0.55,3.53-.35,5.37-1.85,2.94-.2,5.67,0.85,1.62,0.65,1.84,1.4,4,4.21Z" transform="translate(0 -0.34)"/><path class="cls-3" d="M407.89,438l0.07,0.05-0.22.55-0.22.5-0.29.55-0.22.6-0.29.65-0.29.75-0.74,1.5-0.15.45-0.07.1-0.07.2-0.07.1-0.07.15-1.1,2.55-0.22.6-0.07.15-0.07.1-0.81,1.8-0.29.65-0.29.6-0.15.5-0.07.05-0.15.35-0.15.35-0.52,1.25-0.15.2-0.07.15h0l-0.07-.05-0.07.1-15.24-6.66-1.62-1.2-0.66,1.15-0.81,3.4-2.13-.35-2.21,2.9L377,454l-2.43,4-0.44,2.7-1.32,1.85-0.59,1.9-2.87,4.31,0.81,1.35-0.07,1.35,1,2.7-0.37,1.9-0.88.3-0.66,1.45-0.66-.3-0.59,2.15,0.81,0.35-1.18,2-0.66,2.3-1,1,0.88,0.35-1.91,3.7-1,3.55,0.74,1.4-1.18,2.5-0.88-.4,0.07,1.65L362,497.7v1.65l-1,2.25,0.52,0.1-1.77,4.41-1,.65-1.91,4.46,1.91,0.65,7.29-.05-0.29,1.25,3.09,1.3-0.37.5-5,2.25-0.81,1-1.47,3.3,0.22,1.45h-8.91L348,523l0.81-3-0.15-3.9,0.37-1.2-0.66-1.5,1.18-2.65,1.1,0.35,1.32-2.85,0.66-1.55,2.28,0.05,2.28-5.26L355,501l0.44-.9,0.44-1.15-0.22-.1-0.74-.3-0.22.5-2-.9,0.59-1.3,0.88,0.35,0.37-1.25,1.1,0.4,1.25-3,0.59-1.3,4.86-11.26,0.15-2.8-1.18-.4-0.37-.45,1-1.6-0.22-1,1-2.25v-1.55l0.74-.65,0.15-2.75-0.37-.9L367,459.3l1.55-.85-0.15-2.3-0.74-3.25,0.29-1.3,1.55-2.4,1.47-1.1,0.81-1.7,0.59,0.25,4.93-2.4-0.52-.85,1.1-2.25L377.71,440l1.32-1.1-2.87-1.25,0.74-1.3,2.21,0.8,2.06-4.91-1.69-1,3.17-7.26,2.5,1.05,6.77,4.91,0.59,0.4,0.44,0.3,1.69,1,0.44,0.3,0.22,0.1,0.07,0.05,0.74,0.4,1,0.6,2.58,0.9,0.44,0.1,1.1,0.2,1.91,0.4,0.59,0.05,1,0.5,0.29,0.35,1.1,1.25Z" transform="translate(0 -0.34)"/><path class="cls-4" d="M299.24,322.08l-0.44,7.26v0.2l-0.07.55v0.2l-0.07,1.2v1.1l-0.07,1-0.07.9-0.07.9-0.07.5v0.25l-0.22.2-0.88,1.05-0.81,9.46V350l0.07,0.75,0.37,1.9,0.07,0.15,0.52,3.1V356l-0.07.65-0.15,1.2-0.07.35h0l-0.07.4-0.74,5.06-0.15,1.05-0.07.2-6,.25-6.26,1.55L280.32,368l-3.31,1.5-3.31,1.9L271,373.8l-3.9,4.61-2.8,5.36-1.4,4.41-0.15,2.65-0.81,7.06,0.44,5.81,1.25,7.36,0.59,1.45,2.06,9.41,0.66,4.61-0.22,2.1-0.15,5.91-0.22,2.05-1.1,3.2-2.58,3.45-2.8,2-2.72,1.1-2.06.2-3.31-1.2-2.13-1.2-2.21-1.7-6.55-7.11-3.09-2.6-5.23-4-3.24-3.1L227,422.81l-1.69-3.3-0.44-2.7,1.62-8.26,2.36-6.71,0.74-5.16,1.77-8.46,1.18-3.6,2.28-6,5.67-12.87L242.2,361l1.1-4.21,0.37-3.65-0.22-3.2-0.52-2.65-1.1-3.45,1.1-3.05L242,335.15l-0.59-8,0.15-2,0.74-3.55,1-6.51,0.07-3.15,6.62-3.15,7.95-2.8,3.09,0.2,1.55-.8,2.13,1.2,1.25,1.25-0.44.6,1.47,0.65,0.07-.85,1.77,1.1-0.07.85,6.7,0.65,2.94,0.5-0.81,3.5-3,4.46-0.07,1.35,0.59,7.91,1.47,0.15,2.36,1.4,5.23,0.1,6.77-10.81,3.31,2.05Z" transform="translate(0 -0.34)"/><path class="cls-4" d="M211.13,248l5,2.45,1.84,2.1-0.88.9,1.55,2.05,1.84-1.45,1.4,0.3L224,255.9l15.38,9.16L243,259.3l0.44,0.45,4-1.85,1.84,2.6,3.31-1.35,4-1.05,4.86-3.1,2.13,1.5,1.18-2.85,0.07-1.3-1-.85,2.13-3.7L273,237.62l1.84-1.4,1-2.1-2.28-1.9,1-1.35-1.91-1.05,5.74-8.86,1.84,1.25,2.28-3.35,3.46,1.4,1.25-1.2,0.15-2.05,1.55-3.2,0.22-2.45,0.66-1.2,0.44-3.1-1.91-1.7,2.43-10,2.87-10.81,6.55,5.46,14.21-22.68,0.15-3,1.4,0.45,9-14.62,4.78-9.81,0.66,0.9L337,130.59l3.24-5.51,1,0.6,3.9-5.81,0.74-.25,13.76,9.61,2.21-1.65,1.69,0.1,2.65,1.35,4.64-2,0.66-.55,5.37-7,3.53-5.16,2.58,1.85,0.52,1.45,1.25,1.85-1,3.85L382.49,127l-3.61,6.31-2.72,4.51-1.4,2.8-3.68,5.26-1.32,2.55-12.37,26.68-0.07.2-0.15-.3-6-2.85-1.4,3.05-0.59.45-1.55-.75-1.25,2.4-2.28,3.2-0.44,1.6L341.49,187l-0.44,2.5-1,2-2.36-2.2-4.64-3.2L329,194.57l-1.1.8-11.34,25.28-2.06.65-2.13,2.05-6.92-1.7-3,.3-4-1.7-1.69,1.4,0.66,2.25-0.88.4,0.22,1.2-2.94,4.36,1.47,0.3,1.47,1.05,4,1.5,9.79-.05-0.52.2L305.64,239l-2.8,3.65-2.06,3.2-3.53,2.6,0.37,1.3-1.84,2.7L294,255.7,291.14,259l-3.75,4.86-2.43-.35-1.1,1.55,1.47,2.3-2.06,2.75-2.36-.25-1.62,1.6,2.06,1.4L278,278.42l-3.46.9,0.15,2.85-5.3,7.81-6,12.82-0.88-.55,0.74,1.65-2.65-3-2.21-1.9-0.88-1.25-0.37-2,0.44-1.9,5.37-10.61,0.29-1.5-0.29-1.75-4.71-8-3.53-4.46-4.56,1.05-4.93,2.25-2.36,1.55-3.31,1.5L234.39,275l-7.21,1-2.58-.5-6.48-4-4.56-1.05-1.62-.75-4.93-3.6-4.27-6-2.8-3,3.24-2.3,1.62-2.8,1.25-.1,1.1-1.4,1.69-.25Z" transform="translate(0 -0.34)"/><path class="cls-6" d="M263.17,303.91l-1.18-.15,0.59,1.65-1.55.8-3.09-.2-7.95,2.8L243.37,312l-1-3.85-1.77-2.9-2.43-2.85-3.31-4.51-3.31-3.2-6.18-7.91-0.74-1.35L222.54,283l-2.06-1.3-5.37-6.51L205.47,269l-1.69-2.3-1.69-3.2-2.87-3.3-1.32-1,2.06-2,2.8,3,4.27,6,4.93,3.6,1.62,0.75,4.56,1.05,6.48,4,2.58,0.5,7.21-1,5.08-1.05,3.31-1.5,2.36-1.55,4.93-2.25,4.56-1.05,3.53,4.46,4.71,8,0.29,1.75-0.29,1.5-5.37,10.61-0.44,1.9,0.37,2,0.88,1.25,2.21,1.9Z" transform="translate(0 -0.34)"/><path class="cls-2" d="M512.19,296.45L507,301.15l-2.5,1.9-3.83,2.05-5.52,1.5-6.18.75-2.5.6-3.17,1.3-5.81,2.85-3.61-3.65-1.1-1-1.1-.8-15.6-11-8.61-6.06-2.58-3-0.59-.75-0.88-1.4-4.49-8.26-0.74-1.4-0.22-.8-0.29-1.2-0.52-11.61h0.15l4.86-.1,19.51,6.36,7.36-.15,3.83,0.5,3.46-.55,9.35-2.5,4.93-1.7,2.5-1.6,2-1.75,3.24-2.05,4.56,5.26,2.72,2.5,1.4,0.7,3.68,1,2.06-.7,2.58,0.3,4.34-1.15,4.42-2.85,4-1h3l0.29,0.65-4.64,1.1-2.06.75-3.39,2.45-2.72,1.2-1,.85-0.59,1.5,0.22,1.25,1.1,1.3,2.5,1.7,1.4,1.85,0.29,2-0.37,1.4-1.1,1.65-1.32.8-2.8.45-7.51.65-1.69.55-1.47,2-0.81,8.91,0.07,3.1,0.22-.05h0.29l0.52-.1,0.59-.25,0.37-.1,0.37-.25,0.29-.15,0.15-.1,0.44-.15,2.36-.5Zm0,0h0Z" transform="translate(0 -0.34)"/><path class="cls-4" d="M557.6,263.41l0.15,0.65-3.61,1.15-3.83,1.85-2.43,1.9-5.45,5-0.29.25-6.85,6.31-5.08,4-4.12,2.7-7.95,4.51-3.09,2.2-2.8,2.5h-0.07l-1.18-.3-2.36.5-0.44.15-0.15.1-0.29.15-0.37.25-0.37.1-0.59.25-0.52.1h-0.29l-0.22.05-0.07-3.1,0.81-8.91,1.47-2,1.69-.55,7.51-.65,2.8-.45,1.32-.8,1.1-1.65,0.37-1.4-0.29-2-1.4-1.85-2.5-1.7-1.1-1.3-0.22-1.25,0.59-1.5,1-.85,2.72-1.2,3.39-2.45,2.06-.75,4.64-1.1,3.09,0.1,2.28,0.65,1,1.9,1,3.65,4,1.8,3.75-9.26,4,1.75,1-2.25,3.61-2.4,0.29-.7,3.24,1.4-1.77,4.61Z" transform="translate(0 -0.34)"/><path class="cls-5" d="M312.78,334l2.87,0.25,2.8,1.75,1.25,2.15,1.62,5.21,0.29,4.31,3.17,1.55,7.51-3.2,1.4,3.25,1,2.05,1.18,4.31-2.13.85,3,7.91,2.36,3.4-3,1.5-3.53,1.2-3,.7-8.83-.3-2.36-1.4L312.56,368l-4.42-.7-2.58-.55-2.72-.1-3.17-1.35-3.31-.35,0.52-3.7,2.06-3.5,1.62,0.15,1.47-7.26,0.44-4.56,2.87-5.06,5.37,0.3,0.07-1.75-2.43-1.2,1.55-2.6Zm0,0h0Zm20.9,15.27h0Z" transform="translate(0 -0.34)"/><path class="cls-3" d="M306.6,312.87l1.47,2.15-0.29,2.8,1.1,0.5,1,0.45-0.52,1.15-0.52,3.55,2.28,1.05,1,2.2,0.37,2.5-0.29,4.06,0.66,0.75h0l-2.87,1.7-1.55,2.6,2.43,1.2-0.07,1.75-5.37-.3-2.87,5.06L302,350.62l-1.47,7.26-1.62-.15-2.06,3.5-0.52,3.7h-0.22l0.07-.2,0.15-1.05,0.74-5.06,0.07-.4h0l0.07-.35,0.15-1.2,0.07-.65v-0.15l-0.52-3.1-0.07-.15-0.37-1.9-0.07-.75v-3.1l0.81-9.46,0.88-1.05,0.22-.2V335.9l0.07-.5,0.07-.9,0.07-.9,0.07-1v-1.1l0.07-1.2v-0.2l0.07-.55v-0.2l0.44-7.26,0.15-5.61,6,1.15,0.66-1.2,0.15-2.1-0.44-1.45h0.81Z" transform="translate(0 -0.34)"/><path class="cls-1" d="M381.9,185.41H382l1-.1h0.07l0.29,0.05h0.07l0.81,0.2,0.66,0.15,1,0.2H386l3.53,0.9h0.15l1.77,0.15h0.29l1.25,0.1h0.07l2.06,0.1,0.29,0.05,0.52-.05,1.1,2.05-0.15,1.35-4.78,8.86-1.25,2.05-1.32,5.61v4.86l-1.4,8.61-2,5.21-0.52,3.6-1.4-.35-6.11-.7-2.06-1.1-0.07-.05-0.52-.2-0.59-.25-2.21-.6-0.59-.1-0.29-.1h-0.07l-0.15-.05-0.74-.3-0.44-.25-2.36-1-2.06.2-0.15.05-0.15.05-0.22.1-0.07.05-1.91.7-0.59.2-3.17,1-3.17.1,6.33-13.07,2.72,1.15,3.09-5.46v1.45l2.5,1.85,0.44-.75-1.32-2.85-0.22-1.9,0.88-4,1-1.25,1.91-3.3,1-2.45,3.09-2.45,1-2.5,0.37-5.81,1-.05,0.07,0.05h1.4Z" transform="translate(0 -0.34)"/><path class="cls-1" d="M388.09,243.73l-5.74,1.5-4-4.21-1.84-1.4-1.62-.65-5.67-.85-2.94.2-5.37,1.85-3.53.35-2.13-.55-5-2-2.28-1.35,1.1-2.15,1.32-1.1,2-3.65,1.62-2.2,1.25-1.35,1.4,0.6,3.17-.1,3.17-1,0.59-.2,1.91-.7,0.07-.05,0.22-.1,0.15-.05,0.15-.05,2.06-.2,2.36,1,0.44,0.25,0.74,0.3,0.15,0.05h0.07l0.29,0.1,0.59,0.1,2.21,0.6L375.5,227l0.52,0.2,0.07,0.05,2.06,1.1,6.11,0.7,1.4,0.35,0.52-3.6,2-5.21,1.4-8.61v-4.86l1.32-5.61,1.25-2.05,4.78-8.86,0.15-1.35-1.1-2.05,6-2.3,1.25,5.46,1.55,5.46,1.84,5.46,0.07,0.2,2.87,6.41h0l-2.13,2.65-1,2.1-4.86,19.47-1.77,5.16-2.06,4-2.58,1.6-4.27.4Z" transform="translate(0 -0.34)"/><path class="cls-4" d="M402.14,149.66h-0.07L401,171.44v3.5l0.29,4.56,0.66,5.36-6,2.3-0.52.05-0.29-.05-2.06-.1H393l-1.25-.1h-0.29l-1.77-.15h-0.15l-3.53-.9h-0.15l-1-.2-0.66-.15-0.81-.2h-0.07l-0.29-.05H383l-1,.1H380.5l-0.07-.05-1,.05-3.53-.55-0.52-.75,1.1-.65-2.5-.7-0.37-1-3.39-1.6,0.74-2-0.52-2.4,0.22-.85,2.21-3.65,2.43-2.8,1.18-3.5,0.37-2.55,1.77-2.35,2.43-5.31-0.22-2.65,1.77-3.9,1.77-2.8,0.15-2.6,1.18-3.35,2.28-2,2.58-3.85,0.59-.35,2.36,0.45,1.55-2.45-1.1-1.4-3.53-2-2-2-1.25-2,9.2-12.32,4-4.91,0.44-.4,1.25-1.4,2.21-4v8.31l-0.88,15.47-1.32,25.08h0.07Z" transform="translate(0 -0.34)"/><path class="cls-4" d="M421.13,104l-0.15.3-3.09-3-2.28-1.7L412.82,98l-6.18-.2-1.77-.7-0.59,3.7-1,2.05-2.5,3.3-0.44.4-4,4.91-9.2,12.32,1.25,2,2,2,3.53,2,1.1,1.4-1.55,2.45-2.36-.45-0.59.35-2.58,3.85-2.28,2-1.18,3.35-0.15,2.6-1.77,2.8-1.77,3.9,0.22,2.65L378.59,160l-1.77,2.35-0.37,2.55-1.18,3.5-2.43,2.8-2.21,3.65-0.22.85,0.52,2.4-0.74,2-3.46-1.4-1.69.6-0.52,1.35-1.25-1,0.15-1.6-6.11-2.85,0.07-.2,12.37-26.68,1.32-2.55,3.68-5.26,1.4-2.8,2.72-4.51,3.61-6.31,1.32-3.55,1-3.85-1.25-1.85L383,116.27l0.07-1.55,4.64,3.2,3.17-4.41,1.77-3,0.52-3,1.69-3.1,2.21-3,0.07-1.4,3.24-4.56-2.28.05L395,93.79l-3.24.2,0.37-3.1,5.08-2.45,3-1.7,1.1-1.3,1-2.4,2.72-1.9,2.72,0.5,1.1-.3,2.87-2.2,2.13-2.6,17.37-23.08,3.39-4,3.75-4.06,2.43-2.25L444.62,40l3.17-2.25,2.58-2.2L451,34.52V30.46l1.69-2.25,1.77,3.35L456,33.11l4.34,3.35,1.55-.35L459.12,38,456,39.47l-2.36,3.35-2.21,2-0.66,8.66-0.29,6.31L442.19,59v0.7l2.87,1.9-2.06,3-0.52-.35-1.32,2.25,1,0.6-1.18,2-0.37,1.55-1-.5-4.86,7.16-0.81.1-2.65-2.8-2.65-.05-4.49,13.17-1.4-.4-0.52,2.6-0.74.45-0.29,1.7,2.28,1-2.87,3.05,1,3.2-0.29.05,1.77,5.36Z" transform="translate(0 -0.34)"/><path class="cls-1" d="M671,340.35l-5.82-2.5,8.1-5.86,2.58-1.65,3.83-1.35-0.88.5L677,333.54l-2.65-1.2-0.07,4.81-2.36,2.8Zm33.64-27.53,0.52-2.1,0.22-.25,0.15-.2L706,310l3.68-1.85-0.15-.3-2.13.75-8.91,2.8-17.15,5.56-0.66-1,1.25-1.15,3.46-1.1-1.18-3.8,2.5,0.65,2.43,0.1,2.21-5.16,3.68,1.6,2.36-5.21,1.69,0.3,3.61-.8-0.22-.5,8.69,0.4-0.66-1-0.22-2.1-8.24-.35,0.15-1.8,1.32-2.7,7.07,3,4.42-1,2.13,2.35-3.53,3.65,2-.2,2.06-2.9,0.52,0.6,1.32-.9,1.1,1.3,1.25-.35,4.42-.35,1.4-1.15-1.55-5.11-0.22-1.3,2.21-4.06,1,0.65,0.88-4.21,8.54-5.61-1.91-3.8-0.74-9.06,5.08,0.1,4.12-9.21,1.91,0.4,3.09,3.5,2,0.9-8.32,22.33-1.77,3.65L739,290.94l-3.61,3.9,3.31,1.3-2,4.36,5.59,2.3-1.25,2.9,1,1,2.36,1,0.29-.6,3.24,1.7-1.69,3.7-14.5-6.11-1.84-.3-0.15-.55-3.31-.15-1.47.25-5.59-.45-4,.85,1.18,1.3,1.1,0.35,0.88,2.6,1,0.55-2.13,4.61-1.55-.35-1.4-1.1-5.3-1v-0.25Z" transform="translate(0 -0.34)"/><path class="cls-2" d="M373.73,420.2l0.37,0.1,2,1,1,0.45-9.42,20-4.2,7.51L360,456.55l-10.82-4.66,0.37-1.15,5.89-13.32,7.8,3.4,0.81-1.85,0.74,0.35,1.62-3.55-0.29-.35-5.23-2.3,0.81-1.9-4.93-2.15,0.44-1.05-2.72-1.15-2.36-1.35-11.56-4.86-0.88-.6-2.8,1,4-9.36,2.28-5h0l24.07,10.61,0.29,0.15,1.1,0.5,0.66,0.3,1.69,0.75,0.66,0.3Z" transform="translate(0 -0.34)"/><path class="cls-4" d="M362.84,470.67l-1.91,2.1-3.17-.1-3.31-1.55-0.52-.3,2.87-7.31,3.24-7,3.46-7.36,4.2-7.51,9.42-20,3.24,1.15,2.28,1.1-3.17,7.26,1.69,1-2.06,4.91-2.21-.8-0.74,1.3,2.87,1.25-1.32,1.1,0.22,1.15-1.1,2.25,0.52,0.85-4.93,2.4-0.59-.25-0.81,1.7-1.47,1.1-1.55,2.4-0.29,1.3,0.74,3.25,0.15,2.3-1.55.85-3.68,7.06,0.37,0.9L363.57,470Z" transform="translate(0 -0.34)"/><path class="cls-5" d="M333.69,349.31l-1.4-3.25-7.51,3.2-3.17-1.55-0.29-4.31-1.62-5.21L318.45,336l-2.8-1.75-2.87-.25h0l-0.66-.75,0.29-4.06-0.37-2.5,2.58-.25,5.52,2.45,1.62,3.1,2.87,1.25L324,329.64l-0.74-2.6-0.74-1.2-0.44-4.61v-7.11l4.12,0.75,3.83-.4,1.84-2.15v-0.05h0v-0.2h0.59l-0.22,1.15,4.27-.65,1-.85,1.18,0.2,2.28-1.2h0l0.15-.15v0.05l1,0.6,1,5.56-3.83.45-2.13,1.3-0.37.65,1.77,2.6h0.59v-2.2h2.06l4.2-1.45h3.75V324l0.52,7.51,1.32,12.77-0.07,3.3-2.06,8.31-1.4,3.15-3,4.31-2,2.05-3.31,2.45-2.36-3.4-3-7.91,2.13-.85-1.18-4.31Z" transform="translate(0 -0.34)"/><path class="cls-3" d="M240.8,463l-1.32-4,3.24-1.75,0.59,0.85-1,.8,0.81,0.85-0.66.6,0.66,1.05-1,.9,0.52,1.1,2-1.9,1.25-1.8,0.74,0.45-0.88.75,1.4,2,0.07-1.45,0.74-.3,1.91,1.45,1.25,1.65v1.3l2.13-.5,0.15,1.05-1.18,2.55,2.36,1.1v-1l-1-2.8,2.36-.6,0.74-4.86,4.56,1.6,3.17-.75,3,2.35,1.4,0.6,0.29,0.15,0.52,0.2,0.44,0.2,0.52,0.2,0.15,0.1-3.9,8.46-2,.1v5.86l1.77,0.1,1-.7,0.52,5.56-1.1,1.5,0.52,2.4,1.77,1.3,0.37,2.2-2.21-.15-0.88-1.85-0.52,1.9-1.55-.65-0.07,1.45,3.17,1.3-0.37,1.25-2.72-1.2-1.62.5-0.29,4.71,1.55,0.65,0.15-2.7,1,1.3,1.1-.15-0.88-2.35,3.9,1.6-1,2.25,1.91,0.9,1.32,0.1,0.29,1.2,1.32,0.85,1.18,1.9L269,517.23l-1.69-.3-1,3-0.44-.05-0.74,5.66-11.7.25-20.09.75,0.37-1-1-.85-0.15-2.5,0.44-2.65-4.71-.4-1.32-1,1.1-2.7,1.25-1,0.66-3.1-1.4-.85,1.18-.8,0.66,0.35,1.32-2.4L231.6,510l2-.75,2.06,2,0.66-.05L236,508.32l0.88-1.85-0.44-1.3,0.44-4.46-0.29-4.41,0.74-2.2,1.1-5.51,0.07-3.4-1-1.05,1-1.7,0.37-2L238.29,478l3.17-.9-0.22,2.5,2.36,0.15,0.66-1.3,0.52,1.4,1.32,0.7-1.69-.1-0.37,1.1-2.87-.2-0.07.6,3.75,0.25-0.59-1.15,1.77,0.05,1.32,0.65,0.44-1.8-1.55-.05v-1.05l1.32,0.05-0.52-2,0.07-1.75-1-.6,0.52-2.35-0.37-2.3,0.22-1.35-0.52-2.7,0.29-1.2-0.88-.15-0.74,1.25,0.22,3-0.29.75,0.88,2.1-1.25.4-2.21-.15-1.1-4.51Zm0.15,21.43L240.5,490l-1.62,3.25,1-.65,1.25-2.45,1.55-4.61,1.18,1.8,1.55,0.5,1.4-1.65-0.66-1.65Zm-1.47-28.74-0.81-.6Zm4.64,3.05,0.66,0.15Z" transform="translate(0 -0.34)"/><path class="cls-3" d="M359.67,263.41l-1.18,2.4,0.15,0.2h0l7.21,2.45,2.72,2.25L367.92,273v0.15h0v0.7h0v0.85l1.18,1.8-0.07.75h0v0.05h0l1.25,3.1-0.15,2.55,0.66,0.8-0.15,1.5,2.21,0.35,1.32,2.7-4,2.35-3.9,2.6-5.59,4.16-3.9,3.9-2.28,2.8-3.09,5.36-1.1,2.4-1,3.8-0.22,2.45h-3.75l-4.2,1.45h-2.06v2.2h-0.59l-1.77-2.6,0.37-.65,2.13-1.3,3.83-.45-1-5.56-1-.6v-0.05l-0.15.15h0l-2.28,1.2-1.18-.2-1,.85-4.27.65,0.22-1.15h-0.59v0.2h0v0.05l-1.84,2.15-3.83.4-4.12-.75v7.11l0.44,4.61,0.74,1.2,0.74,2.6,0.59,3.65L321.76,332l-1.62-3.1-5.52-2.45-2.58.25-1-2.2-2.28-1.05,0.52-3.55,0.52-1.15-1-.45-1.1-.5,0.29-2.8-1.47-2.15,3.24,0.35,0.37-3.9,0.37,0.05,1.18-8.91,1.4-1.5,2.06-.05,2.58,2.25,3-3.65-2.5-1.9,5.37-7-0.52-1.4-1.4.85-0.37-1.3-1-1L322,284l1.84-1-0.52-1.2,3.61-8.06,2.06-4.36-0.74-.4,0.37-1.15-1.32-.75,1.25-2.8h1l0.29,1.4,6.4-2.8-0.07-1.6-1-4.11-0.07-.45,5.81-2.05-0.07-.5,1.62-.2,2.43,0.45,2.28,1.45,2.8,3.8,3.17,2.6,3.31,1.15Z" transform="translate(0 -0.34)"/><path class="cls-6" d="M671,340.35l-0.66,2.8-2.43,3.55-0.81,1.7-2.87-.6-1-1-4.78-1-1.47-.5,1.47-3.55-1.77-1-6-.45-2.21-.4,0.52-2.2-0.52-1.5,1.69-.05,0.74-.85,0.52-.15h0.07l3-.45,3.24-1.25,18.7-10.11,5.82-2.8,0.37,0.4-3.09,7.16,0.15,0.9-3.83,1.35L673.31,332l-8.1,5.86Z" transform="translate(0 -0.34)"/><path class="cls-1" d="M704.67,312.82l-3.9.3-4.42.85-4.71,1.55-5.82,3-1.55.5-2,1.5-5.82,2.8-18.7,10.11-3.24,1.25-3,.45h-0.07l-0.52.15-0.29-.2-17.89,2.2-6.26,4.76-2.5,2.2-1.91,2-0.22.3-1.4,1.75-1.84,2.7-2.36,3.8-1.18,1.8-0.88,1.25-2.5,2.8-22-11.26-5.45,12.42-4.49-2.05-1.69,3.6,0.59,1.45-1.47,3.25-4.27-1.85-1.25,1.9,0.52,1.2-1.62,3.45,7.73,3.4-5.3,3.3-2.94,2.1-13.76,10.61-20.68-8.91-1-.7L529,376.8l-2.13-1.35-11.92-1.65-5.3-.8-20.24-2.7,5.52-12.82,0.66-1.85,0.74-4.71,1.84-1.9,2.13-2.15,0.88-3.75,1.4-3.25,6.55,0.05,5,0.85,5.59,1.75,13.91,4.61,3.75-8.71,2.43-5.41,1.18-4.41,4.93-.3,4,0.6,31,11,1.84,1.3,1,1.25,1.47,3.25,1.32,1.8-0.29-2.35,16.12,1.65,5.23-.1,2.43-.45,2.28-1.1,9.79-5.51,2.13-1,2.8-.7,5.74-.85,4.78-3.35,5.15-3.1,7.51-3.45,3.61-1.35,8.17-2.7,19.29-6.21,17.15-5.56,8.91-2.8,2.13-.75,0.15,0.3L706,310l-0.44.3-0.15.2-0.22.25Z" transform="translate(0 -0.34)"/><path class="cls-1" d="M608.61,363.48l-9.35,6.91-13.1,9.71L583,376.25l1.84-1.3-1.4-1.6-5.15,2.85-7.73-3.4,1.62-3.45-0.52-1.2,1.25-1.9,4.27,1.85,1.47-3.25-0.59-1.45,1.69-3.6,4.49,2.05,5.45-12.42,22,11.26-0.44.45-0.07.05-0.07.1-0.07.05Z" transform="translate(0 -0.34)"/><path class="cls-3" d="M472.37,457.7l-0.29.35-0.22.25-1.62-3-1-.6-3.68-.45-1.69-2,0.07-6.51,0.37-2.1,0.81-1.5-5.15-2.2-0.37,1-0.88-.4-0.52,1.2-3.24-1.45-0.88,1.9-11.26-4.91v-0.2l-6.92-3.1-0.74-.1-6.55-2.8V431l0.07-.25v-0.1l0.07-.15,0.07-.3v-0.1l0.15-.3,0.07-.15v-0.1l0.15-.2,0.44-1.15,0.07-.1,0.59-1.35,0.07-.15,0.37-.65,0.15-.1,0.29-.25,0.07-.05,0.07-.05,0.44-.3v-0.05l0.15-.05L432,425l0.15-.05,0.15-.05h0.07l0.15-.05h0.37l0.88-.1,1-1.4,0.07-.15,0.07-.15,0.07-.1,0.07-.1,1-2,0.07-.1,0.07-.1,0.07-.1v-0.05l0.07-.1,0.07-.05,0.07-.1,0.07-.05,0.15-.1,0.15-.1,0.52-.55,0.07-.2v-0.1h0v-0.3l-0.15-1.7V416l0.07-.25,0.07-.2,0.15-.25,0.29-.35,0.22-.25,0.15-.3,0.22-.25,0.22-.25,0.07-.15,0.07-.35,0.07-.2L438.8,413l-0.07-.35-0.07-.35-0.07-.4v-0.1l-0.07-.05,0.07-.25v-0.25l0.15-.65v-0.25l0.15-.3,0.15-.25,0.59-2,0.07-.55,0.22-1,0.07-.35,0.29-1.65v-0.1l0.15-.05,2.28-1,0.15-.05L443,403l0.22-.05,0.66-.3,0.15-.1,0.22-.1,0.22-.1,0.15-.05,0.15-.1,0.15-.05,0.22-.1,0.29-.1,0.15-.1,0.22-.1,0.22-.1,0.22-.1,0.15-.05,0.66-.35,0.15-.1,0.15-.1,0.07-.05,0.15-.1,0.07-.1,0.15-.1,0.07-.1,0.22-.3,0.15-.2,0.07-.1,0.15-.15,1.18-1.65,0.29-.35,0.29-.35,4.42-.7,3.31-1.8,1.84-1.6,2.58-3.9,2.5-5.51v-0.1l2.28-4.16,1.62,0.8,4.34,0.2,2.72,0.85,3.09,2.7L489.59,390l-0.81,1.4-1.32.9h-1l-3.53-1.05h-1.1l-1.18,1.2-4-3.45-1.77-.6-1.18.4L472.37,390l-0.74,2.75,2,7.36,0.07,2.85-0.44,2.4L469.79,416l-1.25,5.71v7.91l0.44,0.45-0.52,11.41L470.6,453l-0.07,1.4Z" transform="translate(0 -0.34)"/><path class="cls-4" d="M506.52,430.77l-2.36,1.8-0.37.25-0.22.25-0.29.15-23.92,18.52-5.59,4.46-1.4,1.5-1.84-3.25,0.07-1.4-2.13-11.51L469,430.12l-0.44-.45v-7.91l1.25-5.71,3.46-10.66,0.44-2.4-0.07-2.85-2-7.36,0.74-2.75,1.25-1.25,1.18-.4,1.77,0.6,4,3.45,1.18-1.2h1.1l3.53,1.05h1l1.32-.9,0.81-1.4-10.67-5.81-3.09-2.7-2.72-.85-4.34-.2-1.62-.8,2.58-3.6,1.47-3.2,1-1.65,2-1.55,1.18-.5,3.39-.25,10.6,1.45-2.21,5.16,1.91,3.55,5.74,17.42,6.4,19.83,1,3.4,0.29-.65,0.59,3.5L503.5,429l2.94,1.3Z" transform="translate(0 -0.34)"/><g id="legend"><path class="cls-8" d="M0.5,32V20.5h368V32" transform="translate(0 -0.34)"/><rect class="cls-9" x="44.2" y="20.66" width="46.26" height="11"/><rect class="cls-10" x="90.46" y="20.66" width="46.26" height="11"/><rect class="cls-11" x="136.72" y="20.66" width="46.26" height="11"/><rect class="cls-12" x="182.97" y="20.66" width="46.26" height="11"/><rect class="cls-13" x="229.23" y="20.66" width="46.26" height="11"/><rect class="cls-14" x="275.49" y="20.66" width="46.26" height="11"/><rect class="cls-15" x="321.74" y="20.66" width="46.26" height="11"/><line class="cls-8" x1="90.96" y1="19.66" x2="90.96" y2="31.66"/><text class="cls-16" transform="translate(88.18 41.76)">8</text><line class="cls-8" x1="137.22" y1="19.66" x2="137.22" y2="31.66"/><text class="cls-16" transform="translate(131.66 41.76)">12</text><line class="cls-8" x1="183.47" y1="19.66" x2="183.47" y2="31.66"/><text class="cls-16" transform="translate(177.91 41.76)">17</text><line class="cls-8" x1="229.73" y1="19.66" x2="229.73" y2="31.66"/><text class="cls-16" transform="translate(224.17 41.76)">21</text><line class="cls-8" x1="275.99" y1="19.66" x2="275.99" y2="31.66"/><text class="cls-16" transform="translate(270.43 41.76)">25</text><line class="cls-8" x1="322.24" y1="19.66" x2="322.24" y2="31.66"/><text class="cls-16" transform="translate(316.68 41.76)">29</text><text class="cls-17" transform="translate(0 13.66)">V<tspan x="9.3" y="0">oter turnout by p</tspan><tspan x="132.78" y="0">r</tspan><tspan x="138.25" y="0">ecinct (%)</tspan></text></g></svg>