<svg id="city-map" xmlns="http://www.w3.org/2000/svg" viewBox="0 0 861.87 593.17"><defs><style>.cls-1,.cls-15{fill:#6baed6;}.cls-1,.cls-2,.cls-3,.cls-4,.cls-5,.cls-6,.cls-7,.cls-8,.cls-9{stroke:#fff;}.cls-16,.cls-2{fill:#4292c6;}.cls-17,.cls-3{fill:#2171b5;}.cls-14,.cls-4{fill:#9ecae1;}.cls-13,.cls-5{fill:#c6dbef;}.cls-19,.cls-6{fill:#08306b;}.cls-11,.cls-7{fill:#f7fbff;}.cls-12,.cls-8{fill:#deebf7;}.cls-18,.cls-9{fill:#08519c;}.cls-10{fill:none;stroke:#000;}.cls-20,.cls-21{isolation:isolate;}.cls-20{font-size:10px;font-family:Helvetica;}.cls-21{font-size:16px;fill:#252525;font-family:Avenir Next;}</style></defs><title>fallback</title><path class="cls-1" d="M362.86,469.16l3.29,1.49-6,13.64-0.67,4L355,485.67l-1.18,2.52-2.7,4.93,0.76,1.6L350,500.57l-0.08,2.52-1.35,4,0.84,2.87,1.26,0.17,0.84-2.35,3.54,2.52-4,.86-0.51.74,2,1v0.63l-3.88,1.95-0.51,1.09,1.52,2.23,0.25,2.12,2.11,0.74,0.59,1.72-1.18,2.23,0.76,1.83L354.1,529,352,534.83l-4.8,2.23-2.78,2.06,3.29,1.49-1,3.55v2.75l1.77,1.49-0.84,1.83,1.18,2.29,1.77,0.23,0.08,2.06,2.36-.34,1.94,4.24L354.27,561l-0.51,3.32,2.53,1.89,1.1,5.5-0.84,3.67,2.95,1.09,0.25,1.72-1.1,1.83-3.71,1.83-2.86-1.43-3.37-.69L348,582.51l1.35,3.5-0.84,2-10.53.34-34,.86,0.84-6.48,0.51,0.06,1.1-3.38,1.94,0.34,6.15-14.38-1.35-2.18-1.52-1-0.34-1.38-1.52-.11-2.19-1,1.18-2.58,1.77-3.9-1.43-2.52-0.42-2.52-2-1.49-0.59-2.75,1.26-1.72-0.59-6.36-1.1.8-2-.11v-6.7l2.27-.11,4.47-9.68,2,0.92,1.35-3.21,0.76-3.21L311,512.83l1.6-3.44-3.45-1.6L308.18,509l-0.08.11-0.25.23-0.25.4-0.17.23-1.94,2.46-1.26,2.41-1.26.57-2-1-3.79-3.84,2.27-4.13,1.26-1.2,2.44,0.23,1.85,0.8,1.85-.29,0.51-2.35-0.76-2.75,0.42-.57v-0.06l0.76-.69h0l3.37-.4,1.94-1.43,1.26,1.83-0.84,2.46,1.94,0.86,1.43-3.27,0.42-.8,0.25-.63,0.25-.57,0.51-1.2,0.59-1.15,0.42-1,2.53-5.67,1.69,0.63,0.93-1.2,0.17-.46,0.17-.34,0.08-.17,0.17-.34,0.17-.46,0.25-.46,0.59-1.43,0.34-.63,0.42-.92,0.08-.29-1.94-1.09,0.25-.46,0.67-1.49,0.08-.17,1.77-4,0.51-1.15,0.25,0.11L330,475l1.1,0.46,4.89,2.18,0.51-1.15v-0.11l0.08-.17V476l0.08-.8,0.08-.4-0.08-.34,0.08-.34-0.08-.4v-0.4l0.08-.34v-0.8l0.08-.52v-0.11l0.08-.06v-0.29l0.08-.11V471l0.34-.8,4.63,2.29,0.17-.29,0.08-.17,2.44-5.56,0.08-.17,0.08-.34-0.17-.06-0.25-.11v-0.06h-0.17v-0.06h-0.42v-0.06h-0.08l-0.84-.4-0.51-.23-0.34-.11-1.26-.69H340.7l-0.17-.11-0.42-.17,0.17-.4,1.52-3.5,0.17-.29,0.42,0.17,0.17,0.11,0.76,0.29,0.17,0.06,0.08,0.06,0.25,0.11Z" transform="translate(0 -0.34)"/><path class="cls-2" d="M309.11,550.71l1.43,2.52-1.77,3.9-4.47-1.83,1,2.69-1.26.17-1.1-1.49-0.17,3.09L301,559l0.34-5.39,1.85-.57,3.12,1.38,0.42-1.43-3.62-1.49,0.08-1.66,1.77,0.74,0.59-2.18,1,2.12Z" transform="translate(0 -0.34)"/><path class="cls-3" d="M416.28,410.65l-4-2.58-3.37,3.21-1.18-.52-4.55,4,0.42,0.46-2.36,2-1.1,1.49-4,1.78-4.89.63-3.88,1-7.75,3-1.6-.4-3.45-3.27-1.26,2.52-0.93.29-4.3-1.95-2.78,1,1.18-2.18-1.35-.86,0.42-2.46,2-5.44,10.11,0.34,3.45-.8,4-1.38,3.45-1.72,3.79-2.81,2.27-2.35,3.45-4.93,1.6-3.61,2.36-9.51,0.08-3.78-1.52-14.61-0.59-8.6v-6.7l0.25-2.81,1.18-4.36,1.26-2.75,3.54-6.13,2.61-3.21,4.47-4.47,6.4-4.76,4.47-3,4.55-2.69,2.95-1.83,11.88-6.07,2.44-1,4-2.29,3.12-2.12L457,301l6.15-3.44L468,295.7l2.44-.57,2.86-1.2,7.58-1.49L494.05,288l4-1.15,2.78-.06,0.59,13.29,0.34,1.38,0.25,0.92,0.84,1.6,5.14,9.46,1,1.6,0.67,0.86,2.95,3.38,9.86,6.93-2.53,2.69-2.7,1.09-2-.06-2.44-1.15L511.32,327l-1.69-3.21-3.12-3.15-18.37-8.37-0.84,2.92,0.93,2.75,1.26,1,3.2,0.74-3.45.06-3.62,1.43-2.44,2.46-1.6,2.87-4.3,8.94-2.44,4-0.59,3.84-2.7,1.38-2.7,2.29-9.69,11.75-4.55,5.16-4.55,4.87-6.74,9.34L431.87,392Z" transform="translate(0 -0.34)"/><path class="cls-4" d="M444,427l-4.8,10.77-6.49-3-0.59,1.32-9.77-4.41,0.93-2-8.76-3.9-2.7.69-1.69,1-4-1.78-1,3-2.78-1,0.25-.57,13.73-16.56L431.87,392l11.46-13.87,6.74-9.34,4.55-4.87,4.55-5.16,1.6,0.46,0.84-1.95,2.86,1.15-28.56,64.87Z" transform="translate(0 -0.34)"/><path class="cls-3" d="M630,364.18l-4.63-.69-5.65.34-36.48,2.58-3-.11,4.3-9.57,10.62-24.47,0.76-1.55-0.84-.34-0.25-.11-1.6-.63-0.25-.11-0.34-.17-0.34-.06-2.36-1-0.25-.11-0.84-.34-0.08-.06-1-.4-0.08-.06L587,327.1l-0.17-.06h0l3.2-2.87,3.54-2.52,9.1-5.16,4.72-3.09,5.81-4.58L621,301.6l0.34-.29-0.25,1.26,3.2,17.08,0.93,6.42,3.71,20.46H631l-4.13,10.09,3.45,7.34Z" transform="translate(0 -0.34)"/><path class="cls-1" d="M496.32,512.37l9.86,5,8.59,3.84,0.93,0.46,2.7,1.2,0.51,0.23h0l0.51,0.23,0.67,0.29,0.42,0.11,0.34,0.06,0.25,1.15,0.67,3.09,0.34,1.6,0.08,0.52,0.42,1.95v0.06l0.08,0.46,0.25,1.2L523,541l-0.59.06,0.67,3.72-1.26-.8L508,537.87h-2.11l-1.94-1.43-3.2-1.6-12.39-5.44-0.51-.11-15-6.7-6-2.52-3.45.06-5.81-2.58-1.18-.8-0.51,1-1.1-.46,1.85-5.33,0.51,0.11,2.27-5.21,0.08-.11,0.08,0.06h0l0.08-.17,0.17-.23,0.59-1.43,0.17-.4,0.17-.4,0.08-.06,0.17-.57,0.34-.69,0.34-.74,0.93-2.06,0.08-.11,0.08-.17,0.25-.69,1.26-2.92,0.08-.17,0.08-.11,0.08-.23,0.08-.11,0.17-.52,0.84-1.72,0.34-.86,0.34-.74,0.25-.69,0.34-.63,0.25-.57,0.25-.63,8.43,4.24,1.18,1,2.44,3.72,1.43,4,2.86,2.75L489.5,509Zm0,0h0Z" transform="translate(0 -0.34)"/><path class="cls-4" d="M605.94,487.44l-0.25.69-2.53,5.79-0.17.4-0.08.23,0.25,0.11,0.34,0.17,1.26,0.57,0.34,0.11,0.25,0.11,3.2,1.43-4.3,8.14-0.59,1-2.86,4-4.3,3.9-1.94,1.32L591.7,517l-3.12,1.15-30.16,10.49,0.76,2.87,1.1,1.89,2.7,2.41-1.35,2.35-1.77,1.72H555.3l-1.1-.69L554,536.55l-1.77-.4-1.35,2.58-1.69,1.66-3.2,4.3-1.43.4-1.77-1.6-1.77-.17v1.26L535.76,546l-3.12,2.18-3.2.29-1.35-.46-1.77-2.35,0.59-1.43-1.6-.34,0.17-1.89-0.59-.8L523,541l-0.08-7.16-0.25-1.2-0.08-.46v-0.06l-0.42-1.95-0.08-.52-0.34-1.6-0.67-3.09-0.25-1.15,1.18-.11,10.45-3.9,3.62-2.23,4-4.7,0.67-.8,0.34-.4,1.6-1.72,6.4-5.1,27.38-21.2,0.34-.17,0.25-.29,0.42-.29,2.7-2.06,10.53-8.19,5.9-4.36,2,3.67,2.19,2.12,5.73,3.5,2.95,1.6h0v0.06l-0.08.17L608,482.69v0.06l-0.08.11-0.08.23-0.67,1.55L607,485l-0.17.34Z" transform="translate(0 -0.34)"/><path class="cls-3" d="M439.2,437.76L436.84,443l-3.29,6.48-4,4.47-4.21-1.2-0.17,3.32-4.21,9.34-27.55-12.15h0l-12.89-5.67-0.84-.4,0.93-2.18-2.7-1.2,2.19-4.93-4.63-2.06,1.26-2.92-5.31-2.41,1-2.23-2.7-1.89L366.74,426l-2.53-2.12,1-.63,2.78-1,4.3,1.95,0.93-.29,1.26-2.52,3.45,3.27,1.6,0.4,7.75-3,3.88-1,4.89-.63,4-1.78,1.1-1.49,2.36-2-0.42-.46,4.55-4,1.18,0.52,3.37-3.21,4,2.58-13.73,16.56-0.25.57,2.78,1,1-3,4,1.78,1.69-1,2.7-.69,8.76,3.9-0.93,2,9.77,4.41,0.59-1.32Z" transform="translate(0 -0.34)"/><path class="cls-5" d="M627.6,526.3l-0.42.46L627,527l-0.25.29-0.25.29-0.51.69-0.25.4-0.25.46-0.42.8-0.34.57-0.34.69-0.84,1.49-0.34.63-0.25.46-0.34.57-0.08.34-0.08.11-0.08.34v0.11l-0.76,2.29-0.17.52,0.59,0.29,0.34,0.11-1,3.15-0.34.69-0.76,1.55-0.67,1.55L618.41,548l-1.77,4-0.17.4-5.14.52-3,.69-3.37,1.83-3.37-.69-6.4,1.72-1.1-.23-2-5.56,0.59-2.29,2.86-1.95,3.29-3.84,4-2.64,4.13-2.12,1.35-1.55,0.17-2.35-1.85-1.26-1.94-.17-4.13.86L599,531.63l-0.17-3.15,0.42-1.72-1.6-3.61L596,520.79l-2.36-2.18-1.26.06-3.45,4.18-8.59,3.72-4.47,3.21-3.71,3.27-6.07,2.52-3.12.17-2.7-2.41-1.1-1.89-0.76-2.87,30.16-10.49L591.7,517l2.86-1.49,1.94-1.32,4.3-3.9,2.86-4,0.59-1,7.08-1,4.21-.92,0.42-.06,3.88-.63H620l0.25-.06h0.17l1.43,0.11H622l0.17,0.06h0.17l0.25,0.06,3.12,1.09,6.32,3.32,0.17,0.11,3.12,2.52-0.17.4-0.34.8-5.39,12.44Z" transform="translate(0 -0.34)"/><path class="cls-1" d="M647.9,480.91l-0.51,1.2-0.17.46L646,485.21l-0.08.23-10.62,24.35-3.12-2.52-0.17-.11-6.32-3.32-3.12-1.09-0.25-.06H622.2l-0.17-.06h-0.17l-1.43-.11h-0.17l-0.25.06h-0.17l-3.88.63-0.42.06-4.21.92-7.08,1,4.3-8.14-3.2-1.43-0.25-.11-0.34-.11-1.26-.57-0.34-.17-0.25-.11,0.08-.23,0.17-.4,2.53-5.79,0.25-.69,0.93-2.06L607,485l0.17-.4,0.67-1.55,0.08-.23,0.08-.11v-0.06l1.43-3.32,0.08-.17v-0.06l3.54,1,3.45-.34,2.95-1.49,1.77-1.55,1.69-2,3.37-3.84,1.43-1.66,4.72-5.62,2.36-2.81,15.84-18.34,11.88,5.21Z" transform="translate(0 -0.34)"/><path class="cls-2" d="M613.1,480.11l-3.54-1h0l-2.95-1.6-5.73-3.5-2.19-2.12-2-3.67,7.75-6,6.49-5.21,26.29-20.34,2.53,1.09,0.76,0.34,5.56,2.35,0.67,0.29,4,1.72L634.84,460.8l-2.36,2.81-4.72,5.62-1.43,1.66L623,474.72l-1.69,2-1.77,1.55-2.95,1.49Z" transform="translate(0 -0.34)"/><path class="cls-4" d="M696.18,462.34h0l-0.25.74-0.34.8L693.74,466l-0.17.23-0.51.74-0.25.34-1.52,2.29-0.08.23-0.34.46-0.51.8-0.67,1-0.34.52L688.43,474l-0.67,1.15-0.08.11-0.59,1.15-0.25.69h0l-0.34.86-0.34.74-0.25.69-0.34.92-0.17.63-0.08.46-0.17.74h0l-0.17.69-0.76,3.44-0.08.52-0.08.63-0.08.69-0.17.52-0.34,1.09-0.08.17-1.26,1.2-3,.63-1.35,2.41-6.66-2.87-0.25-.11-0.93-.46-0.67-.23-7.08-3.09-0.08-.06-0.76-.34-0.17-.11-0.84-.34v-0.06l-1.94-.86-0.17-.11-0.42-.17-0.51-.23-1.6-.69-0.17-.11-0.25-.06-0.17-.11-0.25-.11-2.27-1-0.25-.06-4-1.72-0.25-.11-0.17-.11,14.66-33.24-11.88-5.21,2.19-2.52,2.44-2.81,2.44-2.64,3.29-3.27,2.44-2.29,1-.86,1.77-1.43,1.26-1,3.88-2.87,15-11.12,0.17,1.26,2.19-1.09,4.38,1.38,1.18-.57,0.67-2,1.26-1.26,1.69,2.06,9.18,4.07-2.36,5.73-0.34,2,1.1,4L710,429l-2.53,5.62-0.67,2.29,0.59,0.74-3,7.45-0.25,1.2-3.71,8.31-2.7,8.25-0.08.11Z" transform="translate(0 -0.34)"/><path class="cls-6" d="M682.87,491.05l-0.34.74-0.67,1.32-0.34.57-0.17.34-0.59,1.38-1.26-.57-1.77-.69v-0.06l1.35-2.41,3-.63,1.26-1.2h0l-0.08.23Z" transform="translate(0 -0.34)"/><path class="cls-7" d="M650.68,442.46l-4-1.72-0.67-.29-5.56-2.35-0.76-.34-2.53-1.09L653,424.52l3.37-2.41,6.07-3.78,5.9-3.27,1.6,1.83-2.11,1.49,3.62,4.41-3.88,2.87-1.26,1-1.77,1.43-1,.86L661,431.23l-3.29,3.27-2.44,2.64-2.44,2.81Z" transform="translate(0 -0.34)"/><path class="cls-8" d="M764.09,386.53l0.93-1.95,2.78-4.07,0.76-3.21,0.08,1.49-1.1,2.35L770,382l-1.77,3.84-3.12-1.2,12.55,5.44,2.78-6.25,19.29,8.54,0.59-.86L801.5,392l-1.85,4.36-1.35-.52L797,398.62l4.13,1.78-14.91,33.07-8.34-3.61,1.94-4.36-2.61-1.15,2.44-5.5,2.7,1.09,1.18-2.46,4.55,2.12,0.84-1.83-1.69-.69,1.26-2.41-9.86-4.36-0.08-2.69,3.12-7.28-1.6-.63,0.59-1.32-1.52-.46-0.76,2-2.27-.8-1.69-2.23,1.43-.92-0.76-1.26-2.78,1.72,1.94-4.64v1.38l3.71,1.49,0.84-1.95-3.71-1.49-0.25.57-5.14-2.23Zm-18.54-15-0.84,1-1.94.06,0.59,1.72-0.59,2.52-8.93-.74-7.41-.34L726,377l-1.18-1.55-1.77,1.95-0.51,1.72-6.15,6-1.35.17-3.37,2.81L710.33,390l2.95,1.66-1,3.78L714,396.1l-1.69,4.58,18.11,7.91-3,7.16,6.74,2.81-3.45,7.91L729,424.29l-2.11-.29L725,421.77l-2.19-1-3.62.11,0.34,2.75-9.61-4.18-5.14,1.78,2.36-5.73-9.18-4.07-1.69-2.06L695,410.65l-0.67,2-1.18.57-4.38-1.38-2.19,1.09-0.17-1.26,10.7-7.91,2.78-2.46,0.08-.06,0.08-.11,0.08-.06,0.51-.52,2.86-3.21,1-1.43,1.35-2.06,2.7-4.36,2.11-3.09,1.6-2,0.25-.34,2.19-2.29,2.86-2.52,7.16-5.44,20.47-2.52Zm-15.42,2.75,0.17,1.32,1-.06-0.25-1.43Z" transform="translate(0 -0.34)"/><path class="cls-5" d="M365.48,417.76l-0.42,2.46,1.35,0.86-1.18,2.18-1,.63,2.53,2.12,2.95,1.38,2.7,1.89-1,2.23,5.31,2.41-1.26,2.92,4.63,2.06-2.19,4.93,2.7,1.2-0.93,2.18,0.84,0.4-1.35,3.15-3.54-1.6-1,2.18-3.45-1.55,1.52-3.15-5-2.23-1.43,3.21L361,445.21,359.75,448l1.18,0.52-2.11,4.81,6.82,2.92,0.51-1.15,2.7,1.15,0.59-1,2.86,1.2-1.77,4-3.2,1.09-2.11,2-2.36,5.67-19-8.65h0L343.23,452l0.25-.11,4.13-9.23L342,440.05l-0.93,2-1.43-.69h0l5.14-11.12,1,1.78,9.52,4.24,3.45-7.91-0.34-2.64,2.61-6-1.1-.52v-0.11l0.17-1.32Z" transform="translate(0 -0.34)"/><path class="cls-8" d="M343.23,452l-0.08-.23-0.17-.4-3.12-7.22-0.25-2.75,1.43,0.69,0.93-2,5.65,2.58-4.13,9.23Z" transform="translate(0 -0.34)"/><path class="cls-9" d="M473.83,430.42h0Zm0,0,0.34-1.95-0.42-3,4.47-10.6-1.94-1.83-3.54-1.2-1.1-1.38,0.51-2.12-0.42-1.72,2-1,1.85,0.46-0.76-2.75v-2.41l0.93-2.18,1.18-5.62,0.84-1.6,0.17-2.87-0.76-1.55-3.37-2.52L473,383v-2.29l-1.1-2.18,1.18-4,1.94-2.87,4.47-3.72,4.47-.4,0.93,1.78,2.53,2.18,1.35,3.67,1.85,2.06,4,2.41,3.37,0.46,5.39,1.32-0.17,5,1.1,2.18-1.52.86-1.35,3.09,2.11,1-2,4.53v0.06l-0.17.4-0.08.23-0.08.17-0.08.29-0.17.17-3.12-1.32-1.94,1.43,0.34,0.69,3.71,1.6-0.08.17-4,8.83,5.31,2.64,2.78,1.72-0.67,4.81,3.12,1.26,1.94-.8,1.43-2.29,4.38,1.95,0.93-1.72-4.55-2.23,1.6-3.5,4.3,3.27,2.11-5,2.61,2.46,3.54,1.2,1.6,1.95,0.67,1.55-0.34,1.6-1.85,2.87-1.43,1.32-4,2.46-3.12,1.2-3.12.23-1.35.57L511,431.51l1.69,2.52,1.18,0.11,9.27-6.36,5.73-1.89,3.71,1.09v0.11l-2.86,6.3-2.95,4.47-2.11,1.83-3.79,2.06-5.06.8-3.54-.29-9.77-2-3.88-1.89-4.63-3-2.27-2-1.52-.57-4.63-.34-5-2.06-1.43-.29-1-.17h-0.76l-0.93.06Z" transform="translate(0 -0.34)"/><path class="cls-2" d="M353.17,408.13l-1.52,6.48-2.36,5.67-3,6.76-7.25.17,0.25,4.13,0.34,10h0l0.25,2.75,3.12,7.22,0.17,0.4,0.08,0.23-2.78.52-10.36-4.58,1.35-2.92-1.94-.4,0.17-.86,0.42-2.52V440l-0.42-13.81,0.51-2.29,0.34-1v-1.38L329.67,419l-1.18-1.32-1.18-2.46-1.94-7.74,7.16-1.78,6.91-.29h0.25l3.79,0.4,3.62,1.55,3.12,0.11Z" transform="translate(0 -0.34)"/><path class="cls-4" d="M279.7,499l0.25-.29,0.93-.92,2.11,2.12,7.5,4.93,1.85,0.69-0.59-2,0.67-4.64,2.36-.23,3.12-1.26,3.2-2.29,2.95-4,1.26-3.67,0.25-2.35,0.17-6.76,0.25-2.41-0.76-5.27-2.36-10.77-0.67-1.66-1.43-8.42-0.51-6.65,0.93-8.08,0.17-3,1.6-5,3.2-6.13,4.47-5.27,3.12-2.75,3.79-2.18,3.79-1.72,4-1.43,1.94,7.74,1.18,2.46,1.18,1.32,0.84,2.46v1.38l-0.34,1-0.51,2.29L330.09,440v1.2l-0.42,2.52-0.17.86,1.94,0.4-1.35,2.92,10.36,4.58,2.78-.52,0.59,8.54h0l-0.25-.11-0.08-.06-0.17-.06-0.76-.29-0.17-.11-0.42-.17-0.17.29-1.52,3.5-0.17.4,0.42,0.17,0.17,0.11h0.08l1.26,0.69,0.34,0.11,0.51,0.23,0.84,0.4h0.08v0.06h0.42v0.06h0.17v0.06l0.25,0.11,0.17,0.06-0.08.34-0.08.17L342.22,472l-0.08.17-0.17.29-4.63-2.29L337,471v0.06l-0.08.11v0.29l-0.08.06v0.11l-0.08.52v0.8l-0.08.34v0.4l0.08,0.4-0.08.34,0.08,0.34-0.08.4-0.08.8v0.17l-0.08.17v0.11L336,477.59l-4.89-2.18L330,475l-1.52-.63-0.25-.11-0.51,1.15-1.77,4-0.08.17L325.2,481l-0.25.46,1.94,1.09-0.08.29-0.42.92-0.34.63-0.59,1.43-0.25.46-0.17.46-0.17.34-0.08.17-0.17.34-0.17.46-0.93,1.2-1.69-.63-2.53,5.67-0.42,1-0.59,1.15-0.51,1.2-0.25.57-0.25.63-0.42.8-1.43,3.27-1.94-.86,0.84-2.46-1.26-1.83-1.94,1.43-3.37.4h0l-0.76.69v0.06l-0.42.57,0.76,2.75L306.83,506l-1.85.29-1.85-.8-2.44-.23-1.26,1.2-2.27,4.13,3.79,3.84,2,1,1.26-.57,1.26-2.41,1.94-2.46,0.17-.23,0.25-.4,0.25-.23,0.08-.11,0.93-1.26,3.45,1.6-1.6,3.44,3.54,1.72-0.76,3.21L312.39,521l-2-.92-0.17-.11-0.59-.23-0.51-.23-0.59-.23-0.34-.17-1.6-.69-3.45-2.69-3.62.86-5.22-1.83-0.76-1.95,1-1.6-3.88-1.72-4-2.52-3.12-4.47-1.6-1.32Zm85.77-81.2-5.39.06-0.17,1.32v0.11l1.1,0.52-2.61,6,0.34,2.64-3.45,7.91L345.76,432l-1-1.78-5.14,11.12-0.34-10L339,427.21l7.25-.17,3-6.76,2.36-5.67,1.52-6.48,5.06,0.8,6.57,1.78,2.7,1.6ZM279.7,499h0Z" transform="translate(0 -0.34)"/><path class="cls-4" d="M696.18,462.34l1.43,0.63,0.08-.11,8,3.38,4.38,2.46,6.66,2.75,3.54,1.72,3.71-8.48,7.67,3.78-2,4.47-1.26-.57-1.35,3,1.26,0.52-4,8.88,4.8,1.95-1.35.11,0.08,1.55-1.1,4.13-1.52,3.09,0.76,2.58-0.67,5.21-0.59,1-0.93-.57-2.36,9.11-6.4,14.67,2.19,1,1.35-.92,5.14,2.18-0.67,1.95-1.18.17-7.67,5.1-2.44,2.75L709,542.06,703,545l-0.67.69-0.67-.92-1.85.11-7.25-1.43-7.41-1-5.31-3.09-2.19-.34-6.4,1.09-1.26-.29-8.26-3.61-4-1.89-1.26-1.72-0.25-1.72,0.42-5.39-1.26-2.92-6.32-4.24-9.77-5.5-4-3L646,485.44l0.08-.23,1.18-2.64,0.17-.46,0.51-1.2,0.17,0.11,0.25,0.11,4,1.72,0.25,0.06,2.27,1,0.25,0.11,0.17,0.11,0.25,0.06,0.17,0.11,1.6,0.69,0.51,0.23,0.42,0.17,0.17,0.11,1.94,0.86v0.06l0.84,0.34,0.17,0.11,0.76,0.34,0.08,0.06,7.08,3.09,0.67,0.23,0.93,0.46,0.25,0.11,6.66,2.87v0.06l1.77,0.69,1.26,0.57,0.59-1.38,0.17-.34,0.34-.57,0.67-1.32,0.34-.74,0.42-1,0.08-.23h0l0.08-.17,0.34-1.09,0.17-.52,0.08-.69,0.08-.63,0.08-.52L685,482.8l0.17-.69h0l0.17-.74,0.08-.46,0.17-.63,0.34-.92,0.25-.69,0.34-.74,0.34-.86h0l0.25-.69,0.59-1.15,0.08-.11,0.67-1.15,0.93-1.38,0.34-.52,0.67-1,0.51-.8,0.34-.46,0.08-.23,1.52-2.29,0.25-.34,0.51-.74,0.17-.23,1.85-2.06,0.34-.8Zm0,0h0Z" transform="translate(0 -0.34)"/><path class="cls-4" d="M702.33,545.67l-1,1.32-0.93-.23-1.26,5.73,4.13,2.18,0.42,7.28-0.17,1.66-2.86,5-10.36-5.27-7.41,17-13.23.29-15.42.23-8.34.23-23.68.52-9.77.06-0.34-1.49L610,577.87l0.08-1.43,3.12-5.85L615,568l1.77-1.2,1.43-2.23L618,561l-1-1.55-1.35-.46-1.77-3.9-2.53-2.23,5.14-.52,0.17-.4,1.77-4,1.18-2.58,0.67-1.55,0.76-1.55,0.34-.69,1-3.15-0.34-.11-0.59-.29,0.17-.52,0.76-2.29v-0.11l0.08-.34,0.08-.11,0.08-.34,0.34-.57,0.25-.46,0.34-.63,0.84-1.49,0.34-.69,0.34-.57,0.42-.8,0.25-.46,0.25-.4,0.51-.69,0.25-.29L627,527l0.17-.29,0.42-.46,1.85-2.87L634.84,511l0.34-.8,0.17-.4,4,3,9.77,5.5,6.32,4.24,1.26,2.92-0.42,5.39,0.25,1.72,1.26,1.72,4,1.89,8.26,3.61,1.26,0.29,6.4-1.09,2.19,0.34,5.31,3.09,7.41,1,7.25,1.43,1.85-.11Z" transform="translate(0 -0.34)"/><path class="cls-1" d="M446.53,421.37L444,427l-8.09-3.67,28.56-64.87-2.86-1.15-0.84,1.95-1.6-.46L468.86,347l2.7-2.29,2.7-1.38,6-1.43,7.58-1.38,2.27-.23,4.72,0.17,4,0.86,4.8,1.55-0.25.4-0.25.23-0.34.34-0.51.34-0.25.17-0.34.11-0.84.23-0.51.11H500l-0.34.06-1.26.11H498l-0.34.11-0.34.11-0.59.46-0.25.29-0.25.23-1.35.69h-0.17l-0.42.34-4.63,2.58-2.19-.34-4-2.06-2.61-2.35-2.11-.17-2.53,1-4.72,4.41,0.67,2.35-3.79,4.47-4.55,10.2,2.78,1.2-1.18,2.81,2.7,1.2L450.41,412.6l-0.17.34Zm47.77-74.1h0Zm-47.77,74.1h0Zm0,0h0Z" transform="translate(0 -0.34)"/><path class="cls-2" d="M446.53,421.37l3.71-8.42,0.17-.34,17.69-40.06-2.7-1.2,1.18-2.81-2.78-1.2,4.55-10.2,3.79-4.47-0.67-2.35,4.72-4.41,2.53-1,2.11,0.17,2.61,2.35,4,2.06,2.19,0.34,4.63-2.58h0l1.77,0.11,9.44,5-1.94,1-2.78,4.3-3,3.9-2.7,2.18-3.12,1.66-2.7,1-5.31,1.2h0l-4.47.4L475,371.74l-1.94,2.87-1.18,4,1.1,2.18V383l0.84,1.55,3.37,2.52,0.76,1.55-0.17,2.87-0.84,1.6-1.18,5.62-0.93,2.18v2.41l0.76,2.75-1.85-.46-2,1,0.42,1.72-0.51,2.12,1.1,1.38,3.54,1.2,1.94,1.83-4.47,10.6,0.42,3-0.34,1.95h-0.08l-4.89.86-2.61-.57-3.2-2.12-9.94-6.82-1.69-.52-3.45.63-1.43-.52h0Z" transform="translate(0 -0.34)"/><path class="cls-5" d="M406.17,527l3.79,1.78,3.62,0.11,2.19-2.41v1.78l-1.18,2.58,0.25,1.15-1.18,1.83,0.42,0.52,1.35,0.46L415.27,538l-5.56,12.89L409,552.37l-1.43,3.44-1.26-.46-0.42,1.43-1-.4-0.67,1.49,2.27,1,0.25-.57,0.84,0.34,0.25,0.11-0.51,1.32-0.51,1,2.44,0.57-2.61,6-2.61-.06-0.76,1.78-1.52,3.27-1.26-.4-1.35,3,0.76,1.72-0.42,1.38,0.17,4.47-0.93,3.44-32.27,1-18,.63,0.84-2-1.35-3.5,0.76-2.81,3.37,0.69,2.86,1.43,3.71-1.83,1.1-1.83-0.25-1.72-2.95-1.09,0.84-3.67-1.1-5.5-2.53-1.89,0.51-3.32,0.67-2.23L353,554.49l-2.36.34-0.08-2.06-1.77-.23-1.18-2.29,0.84-1.83-1.77-1.49v-2.75l1-3.55,11,4.81,6.15-14.1-2-3.72,2.7-.52,2.61-2.23,3.37-.63-1.1-6.59,0.17-1.78,1.69-3.67,20.9,9,12.39,5.5Z" transform="translate(0 -0.34)"/><path class="cls-3" d="M473.74,430.42h0.08l2.61-.4,0.93-.06h0.76l1,0.17,1.43,0.29,5,2.06,4.63,0.34,1.52,0.57,2.27,2,4.63,3,3.88,1.89,9.77,2,3.54,0.29-0.34.4-0.34.4-1.35,1.89-0.17.17-0.08.11-0.17.23-0.25.34-0.08.11-0.17.11-0.08.11-0.17.11-0.08.06-0.17.11-0.17.11-0.76.4-0.17.06-0.25.11-0.25.11-0.25.11-0.17.11-0.34.11-0.25.11-0.17.06-0.17.11-0.17.06-0.25.11-0.25.11-0.17.11-0.76.34-0.25.06-0.17.11-0.17.06-2.61,1.15-0.17.06v0.11l-0.34,1.89-0.08.4-0.25,1.15-0.08.63L503,456.78l-0.17.29-0.17.34v0.29l-0.17.74v0.29l-0.08.29,0.08,0.06v0.11l0.08,0.46,0.08,0.4,0.08,0.4,0.08,0.29-0.08.23-0.08.4-0.08.17-0.25.29-0.25.29-0.17.34-0.25.29-0.34.4-0.17.29-0.08.23-0.08.29v1.32l0.17,1.95v0.34h0v0.11l-0.08.23-0.59.63-0.17.11-0.17.11-0.08.06-0.08.11-0.08.06-0.08.11v0.06l-0.08.11-0.08.11-0.08.11-1.18,2.23-0.08.11-0.08.11-0.08.17-0.08.17-1.1,1.6-1,.11h-0.42l-0.17.06h-0.08l-0.17.06-0.17.06-0.08.06-0.17.06v0.06l-0.51.34-0.08.06-0.08.06-0.34.29-0.17.11L493,476l-0.08.17-0.67,1.55-0.08.11-0.51,1.32-0.17.23v0.11l-0.08.17-0.17.34v0.11l-0.08.34-0.08.17v0.11L491,481v0.17l-2.36-1.09-0.42-.17-0.08-.11-0.17-.06-0.25-.06-0.17-.11-0.17-.06-0.42-.23-0.25-.06-0.17-.11L486.3,479l-0.17-.06-0.25-.11-0.25-.11h0l-0.25-.11-0.84-.34-0.17-.11-0.59-.23-0.25-.11-0.17-.06-1.77-.8-0.25-.06-2.27-1-0.42-.17-0.17-.06-0.34-.17-2.78-1.2-0.67-.29-0.42-.23-6.91,15.3-2.11-1.38L464,486.3l-0.34-.4-1.1-.57-0.67-.06-2.19-.46-1.26-.23-0.51-.11-2.95-1-1.1-.69-0.84-.46-0.08-.06-0.25-.11-0.51-.34-1.94-1.15-0.51-.34-0.67-.46-7.75-5.62-2.86-1.2h2.11l1.69-2.58,0.84-2.92,1.26-2.23,3.29-2.46,2.78-1.6,1.43-.23,0.84-1.09,1.35-4.24,1.35-1.43,2.11,0.92,0.76-1.55,2.78,0.52,4.89-10.95-3-1.32,0.42-.86-2.36-1.09-0.42.92-2.7-1.2,2.36-5.33,1.52,0.52,0.67-1.89,0.67-4.3,3.2,2.12,2.61,0.57ZM461.19,455l0.17,1.38L460,458.45l-2.44-1.66-1.35.29-2,3.44-0.42,1.6,3.71,1.26,8.26,3.67-0.08.69-2.78,6.48,3.88,1.43,3.45-7.91,1.18-.8,5.06-6.3-0.67-.29,2.27-5.27h-4l-1.77,4.07-5-2.29-2.95.74L465,456l-3.37-1.78Z" transform="translate(0 -0.34)"/><path class="cls-1" d="M496.32,512.37h0L489.5,509l-5.73-4.18-2.86-2.75-1.43-4L477,494.38l-1.18-1-8.43-4.24-0.08-.06,6.91-15.3,0.42,0.23,0.67,0.29,2.78,1.2,0.34,0.17,0.17,0.06,0.42,0.17,2.27,1,0.25,0.06,1.77,0.8,0.17,0.06,0.25,0.11,0.59,0.23,0.17,0.11,0.84,0.34,0.25,0.11h0l0.25,0.11,0.25,0.11L486.3,479l0.25,0.11,0.17,0.11,0.25,0.06,0.42,0.23,0.17,0.06,0.17,0.11,0.25,0.06,0.17,0.06,0.08,0.11,0.42,0.17L491,481.2l7.5,3.21,0.84,0.11,7.92,3.55v0.23l-6.74,15.07-0.34.23Z" transform="translate(0 -0.34)"/><path class="cls-4" d="M540.56,512.31l-0.42.52-4,4.7-3.62,2.23L522,523.66l-1.18.11-0.34-.06-0.42-.11-0.67-.29-0.51-.23h0l-0.51-.23-2.7-1.2-0.93-.46-8.59-3.84-9.86-5h0l3.88-8.77,0.34-.23,6.74-15.07,12.89,5.62,1-2.18,3.71,1.66,0.59-1.38,1,0.46,0.42-1.09,5.9,2.52-0.93,1.72L531.46,498l-0.08,7.45,1.94,2.23,4.21,0.52,1.18,0.69Z" transform="translate(0 -0.34)"/><path class="cls-1" d="M380.47,447.62l12.89,5.67L390.75,459l-4.63,10.72,3.2-1.15,1,0.69,13.23,5.56,2.7,1.55,3.12,1.32-0.51,1.2,5.65,2.46-0.93,2.18,6,2.64,0.34,0.4-1.85,4.07-0.84-.4-0.93,2.12-8.93-3.9-6.74,15.24L400.19,505l12.39,5.33-3.71,8-3.29,8.37-0.08.06-12.39-5.5,2.44-5.56-4.3-1.89-1.6,3.72-3.12-1.66-13.48-5.73-0.84,2.12-1.69,3.67-0.17,1.78,1.1,6.59-3.37.63-2.61,2.23-2.7.52,2,3.72-6.15,14.1-11-4.81-3.29-1.49,2.78-2.06,4.8-2.23L354.1,529l-1.94-1.55-0.76-1.83,1.18-2.23L352,521.71l-2.11-.74-0.25-2.12-1.52-2.23,0.51-1.09,3.88-1.95v-0.63l-2-1,0.51-.74,4-.86-3.54-2.52-0.84,2.35-1.26-.17-0.84-2.87,1.35-4,0.08-2.52,1.94-5.85-0.76-1.6,2.7-4.93,1.18-2.52,4.47,2.64,0.67-4,6-13.64-3.29-1.49,2.36-5.67,2.11-2,3.2-1.09,1.77-4-2.86-1.2-0.59,1-2.7-1.15-0.51,1.15-6.82-2.92,2.11-4.81-1.18-.52,1.26-2.81,5.22,2.41,1.43-3.21,5,2.23-1.52,3.15,3.45,1.55,1-2.18,3.54,1.6Z" transform="translate(0 -0.34)"/><path class="cls-8" d="M393.11,521.2l-20.9-9,0.84-2.12,13.48,5.73,3.12,1.66,1.6-3.72,4.3,1.89Z" transform="translate(0 -0.34)"/><path class="cls-9" d="M463,428.59l-0.67,4.3-0.67,1.89-1.52-.52-2.36,5.33,2.7,1.2,0.42-.92L463.3,441l-0.42.86,3,1.32L461,454.09l-2.78-.52-0.76,1.55-2.11-.92L454,455.64l-1.35,4.24L451.84,461l-1.43.23-2.78,1.6-3.29,2.46-1.26,2.23-0.84,2.92L440.55,473h-2.11l-2.61-1.26-3.71-1.32-1.18-.52-2.27-1.09-0.42-.11-2.27-1-0.76-.34-1.94-.86-0.76-.34-1.26-.57-0.34-.17,4.21-9.34,0.17-3.32,4.21,1.2,4-4.47,3.29-6.48,2.36-5.27L444,427l2.53-5.62h0l1.43,0.52,3.45-.63,1.69,0.52Z" transform="translate(0 -0.34)"/><path class="cls-5" d="M638.89,290l-0.17-.74,1.18-.4-0.84-1.95,0.59-.74L649.84,283l-1.85-.74,1.52-3.55-4.55-2,0.34-.52,4.3,1.89,1-2.12,6.4,2.75,0.42-2.41,2.7,0.4v6.25l2.95-.92,1.85-7.28,4.38,1.89,0.67,1.72,1.43-.69,1.1,0.92,1.52-2.92L672.59,272l1.52-5.5,7.5,3.21-0.42.92,1.69,0.69,1-1.43,1.1,0.57,1.52-1.32,3.79-1.6,0.59,1.55,0.42-1.95,1,0.52,0.59-1.43,2.27,1.15,0.17-1.49,2.27,0.23,0.25-1.66,4-2.75,1-2.46,3.12-6.25,3.88-.17,0.08-.34-4,.17,2.78-8-5.65-2.18,1.18-2.64,4.55,1.95-0.59-4.36,1.94,0.86,0.08-1.89,1.69,0.63,1.1,2.12-0.51.23,0.59,2.64,0.51-.52,1.6,2.12-0.84.29,1.26,2.46-1.1-.06-0.17,4.18-0.84,3.67,4.13,1.09,1.77,0.86,1.77,2.06-1.6,1.32-1.18-.46L716.65,265l-1.18-.52L716,266l-1.77-.86L712.1,265l-2.86-2.46-3.54,3.21-3,2.12-0.17.8-1.77.11-0.76.86,0.25,1.6-4.3.52v-0.63l-2.36.23-1.18,2.92,4.38,8.77-19.21-4.3-0.42-.8,2.19-2.23L672,279.77l-4.89,1.89Z" transform="translate(0 -0.34)"/><path class="cls-1" d="M482.51,106.76l-0.17.23,3.54,4.36,1.77,1.6,3.71,4.76,0.67,1.95-1.94,5-1.43,3.09-3.45,3.32-3.79,2.75-2.78,2.41-1.85,2.35,0.76,1.09,3.71,1.43,1,0.86,0.17,3.09-1,2.06-1.85,2.06,0.34,7.68,1,2.29-0.76,4.24-6.74,10.72-2.7-3-2.27-3.67L467.59,165l-4.21-5.1-2.61-.86h-0.08l1.52-28.71,1-17.71v-9.51l0.67-4.24,2,0.8L473,99.88l3.2,1.89,2.61,1.95,3.54,3.38Z" transform="translate(0 -0.34)"/><path class="cls-1" d="M589.85,135.53l-2.11,1.32-0.34-.46-2.19,1.6-4,3.61-5,6.13-4.38,6.65-8.17,9.34-2.61,3.5-7.67,11.35-0.76.8-1,.69-2.19.63h-0.76l-1.43-.29L526.57,174l-3.79.4-2.19,2.35-0.51,5.39-0.76,2.29L517.14,187l-9.61,5-2.61,1.6-8,5.9-7.75,6-4.63,5L476.36,217l-2.86,3.27-4.3,5.33-3.29-7.34-0.08-.23-2.11-6.25-1.77-6.25-1.43-6.25-0.76-6.13L459.42,188v-4L460.68,159h0.08l2.61,0.86,4.21,5.1,0.84,2.41,2.27,3.67,2.7,3,6.74-10.72,0.76-4.24-1-2.29-0.34-7.68,1.85-2.06,1-2.06-0.17-3.09-1-.86-3.71-1.43-0.76-1.09,1.85-2.35,2.78-2.41,3.79-2.75,3.45-3.32,1.43-3.09,1.94-5,0.34,1.49,0.67,9-0.84,4.3,0.25,3.61,1.35,2.06,3.2,2.18,3.79,0.23,1.6-1.2,2.95-4.07,2.36-1.38,4-1.6,2.78,0.63,4.55,4.93L524,147l1.43,0.86,5.31,1.66,0.93-1.55,2.95,1.66,1.94-3.32,1.77-7.28,2-5.56,5.06-10.2,3.54-4,1.6-2.41,7.33,3.9,1.43-.17,4,2.12-1.94,4.18,3.12,1.66-1.18.8,0.84,1,6.15-4.41-0.76-1.09,8.34-6Z" transform="translate(0 -0.34)"/><path class="cls-2" d="M469.19,225.61h0l4.3-5.33,2.86-3.27,8.17-6.53,4.63-5,7.75-6,8-5.9,2.61-1.6,9.61-5,2.19-2.58,0.76-2.29,0.51-5.39,2.19-2.35,3.79-.4,20.64,6.42,1.43,0.29h0.76l2.19-.63,1-.69,0.76-.8L561,167.22l2.61-3.5,8.17-9.34,4.38-6.65,5-6.13,4-3.61,2.19-1.6,0.34,0.46,2.11-1.32,1.26,1.83-7.67,5.44,2.61,3.61-2,1.38,2.27,3.32-1.94,2.23-3.45-4.87-2.78,1.95,5.14,7.45-1.35,2.06-8.09-5.5L572.66,157l1.69,2.23-1.85,4.47,5,2.92,5.31,1.26,1.69,0.92-2,3.55-0.84-.69-1.26,3.27,12.89,9.4,2.86,1.95-4.89,6.19,8,3.55,0.42-.74,10.87,7.39,20.64,11.46-0.17,2,8.43,1.89,2.95,1.32,1.18,1.89-2.61.74-1.43-1.32-2.7-.29-0.17-1-5.14-1.66-1.18.69-2.78,10.14-1.6,4.93,1.43,0.34-2.61,2.29-0.17,1.15-2,3.5v1.89l0.76,2.87-1.35.8L620,241l-2.36,2.41-3.29,2.46L610.83,247l-2,2.12-1.52,2.75-0.93,3.5-13.4-4.7L579.32,244l-2.86-1.89-1.26-1.89-5.48-2.81-0.93-4.24-0.84-.86-3.37.23-1.26-1.09-1.94-.52-7,1-1.77,1.49-0.84-.06-3.2-1.83-4.13-4.18-0.93-5.44L543,221l-3.54,3.27-1.18,2.64-0.34,2.52-1.69.57-11-1.09-10-.63-1.52.23L510.31,230l-3.71,2.41-4.3,4.64L500.12,240l-1.35.57L491,242.06l-9.1,2.81-2.27.46Z" transform="translate(0 -0.34)"/><path class="cls-2" d="M558,357.13l1.77,2.06,1,1.38,1,1.55,0.25,0.52-0.59-.11-8.26-1.89-0.25-.06-0.25-.06-0.42-.11-0.25.92-0.17.4-0.17.52-0.25.57-0.42,1-0.17.4-0.08.29-0.17.4-0.42.92-0.17.34v0.11l-0.17.34-0.17.4-0.17.17-0.25.29-0.17.23-0.84.74-0.42.34-0.34.29-0.25.23-0.25.29-0.17.23-2.7,6.07-2.36,2-2.86,1.15-2.53,1.66,0.34,2.52,0.93,3,3.88,3.44,5.81,8.08-0.34.34-4.21,9.63-0.08,2,0.59,1L541,412.54l-1.18,1.89-1.69,3.67-2.95,4.13L532.55,427h0l-3.71-1.09-5.73,1.89-9.27,6.36-1.18-.11L511,431.51l0.76-3.15,1.35-.57,3.12-.23,3.12-1.2,4-2.46,1.43-1.32,1.85-2.87,0.34-1.6-0.67-1.55-1.6-1.95-3.54-1.2-2.61-2.46-2.11,5-4.3-3.27-1.6,3.5,4.55,2.23-0.93,1.72-4.38-1.95-1.43,2.29-1.94.8-3.12-1.26,0.67-4.81-2.78-1.72-5.31-2.64,4-8.83,0.08-.17-3.71-1.6-0.34-.69,1.94-1.43,3.12,1.32,0.17-.17,0.08-.29,0.08-.17,0.08-.23,0.17-.4v-0.06l2-4.53-2.11-1,1.35-3.09,1.52-.86-1.1-2.18,0.17-5L498,380.17l-3.37-.46-4-2.41-1.85-2.06-1.35-3.67-2.53-2.18-0.93-1.78,5.31-1.2,2.7-1,3.12-1.66,2.7-2.18,3-3.9,2.78-4.3,1.94-1,7.92-.06,3.45-.46,15.59-3,10.36-2.35L547,345Z" transform="translate(0 -0.34)"/><path class="cls-1" d="M522.44,326.18l17.86,12.55,1.26,0.92,1.26,1.15L547,345l-4.13,1.49-10.36,2.35-15.59,3-3.45.46-7.92.06-9.44-5-1.77-.11h0l0.42-.34h0.17l1.35-.69,0.25-.23,0.25-.29,0.59-.46,0.34-.11L498,345h0.42l1.26-.11,0.34-.06h0.25l0.51-.11,0.84-.23,0.34-.11,0.25-.17,0.51-.34,0.34-.34,0.25-.23,0.25-.4-4.8-1.55-4-.86-4.72-.17-2.27.23-7.58,1.38-6,1.43,0.59-3.84,2.44-4,4.3-8.94,1.6-2.87,2.44-2.46,3.62-1.43,3.45-.06-3.2-.74-1.26-1-0.93-2.75,0.84-2.92,18.37,8.37,3.12,3.15,1.69,3.21,1.43,1.72,2.44,1.15,2,0.06,2.7-1.09Z" transform="translate(0 -0.34)"/><path class="cls-5" d="M575.69,376.73l4.47-10.43,3,0.11,36.48-2.58-1.35,5-2.78,6.19-4.3,10-15.92-5.27-6.4-2-5.73-1Zm-15.08,34.84-12.13-1.66-3.88.29-1.35.57-0.59-1,0.08-2L547,398.1l0.34-.34-5.81-8.08-3.88-3.44-0.93-3-0.34-2.52,2.53-1.66,2.86-1.15,2.36-2,2.7-6.07,0.17-.23,0.25-.29,0.25-.23,0.34-.29,0.42-.34,0.84-.74,0.17-.23,0.25-.29,0.17-.17,0.17-.4,0.17-.34v-0.11l0.17-.34,0.42-.92,0.17-.4,0.08-.29,0.17-.4,0.42-1,0.25-.57,0.17-.52,0.17-.4,0.25-.92,0.42,0.11,0.25,0.06,0.25,0.06,8.26,1.89,0.59,0.11,0.17,0.23,1.18,2.35,0.08,0.17,0.42,1.09,0.93,2.35,5.81,18.4-2.11,2.18-0.84,5.39-0.76,2.12Z" transform="translate(0 -0.34)"/><path class="cls-2" d="M570.64,387.22l-5.81-18.4-0.93-2.35-0.42-1.09-0.08-.17-1.18-2.35-0.17-.23-0.25-.52-1-1.55-1-1.38L558,357.13,547,345l6.66-3.27,3.62-1.49,2.86-.69,7.08-.86L573.5,337l4.38-2.35,2.86-2.18,6-5.39h0.08L587,327.1l0.59,0.17,0.08,0.06,1,0.4,0.08,0.06,0.84,0.34,0.25,0.11,2.36,1,0.34,0.06,0.34,0.17,0.25,0.11,1.6,0.63,0.25,0.11,0.84,0.34-0.76,1.55-10.62,24.47-4.3,9.57-4.47,10.43-1.6,3.72-1,4.3Z" transform="translate(0 -0.34)"/><path class="cls-2" d="M279.7,499h0l2.19,2.18,0.42,2.18,1.35,2.64,2.44,3.5-2.27,1.32,0.08,1.38-1,.46-0.17,1.78-0.84-.52-1.26-.92-0.76-.17-0.93-.74-0.67-1-3.71-1.78-0.93-.69,0.51-1.09-1.18-.57-3.62,3.55,2.19-.17,2.36,1.43,0.67,1.32,1.52,4.58-0.17,5,1.1,3.78,0.34,4.07-0.51,3.32-3.62,1,0.51-1L273,532.26l0.34-3.09-1.35-5.5-0.76-3.9-1-1.15-2.27,2.81-0.51,2.75-1.1,2.23-2.53,2.29L262,534.38l0.34,0.86-2.11.92-1.85,2.23-0.25,1.26-1.85,1,0.08,2.06-3.62.57L249.29,546l-1.6-.11-0.25,1.32-1.43,1-2.86,6.07-1,1-0.59,2.69-1.35,1.38-0.42,3.15-1.35,2.69-2.11,3-1.69,3.44-0.08,4.87-0.76,1.66-0.17,4.36-2.44,1.2-0.51-.74-2.53,1.83-0.59,3.72-1,2.75-54.43,1h-4.38l6.15-8.25-0.84-.74,3-4.47-16.94-8-4.21,3.5-1.69,2-1.26,3-1.6,2.18-7.58,7.79-1.35,3-29.41.06-0.67-3.21,3.37,1.49,15.08-32.49-15.84-7-7.33,16.33,8.26,3.72-6.66,14.61-2.19-1-3.62.34-1.69-.57-0.59,1.83-0.59-.74-1.18.86,0.67,0.86-2.44,1.26-0.84-1.49-0.59-3.15-2.61,2.52-0.67-.46L87.77,588l1.1,2.46,2.44-.69L91.9,591l2.36-.57-2.11,2.06-14.83.06L39,593l-0.51-.63,2.27-5.16-3.2-2.06-2.11,5.1-1.52-.52-4.72.06L25.67,588l-1.77-1.49-2.27-.92L18.76,583l2.11-1.09,0.76-2.18,5.22-1.43,1-2.18,2.36-1.2,3.37-4.81,4.89-5,3.88-2.06,10.11,4.81,7.5-9.63,3.29-2,2.27-2.12,6-5,3.2-1.32,2.7-2.18,1.69-2.06,4.55,1.38,1.77-.46,3.37-4.36,8.51,3.84,3.88-7.91,8,3.5,3.45-8,8,3.61,9.86-21.26-6.91-3.15,2.19-5L137.14,501l2.61,1.89,2.7,1.2,2.44-3,0.76,0.34,2.19-4.07-0.42-1.55-2.86-.69-0.51.86-2.7-.63L139.16,493l1.94-1.78,2-2.58,1.43-.29,1.85,1.32,2.19-2.87-0.84-.74-1.52,2.06L145.32,487l1.35-2.18-2.27-4.07-0.93,1.43L143,480.85l1.18-.69-3.2-8.08-2.36-3.9-2.7-2.58-3.2-1.83,0.25-.63,1.69,0.8,0.34-.69,3.29,2,3.71-8.6,6.4-1,3.79-.29-12.64,12.32,2,4.41,3.88,9.91,1.26-.63,1.26-2.06-1.35-.63,4-9.28,8.76-18.45,1.43-1.15,6.49,3.67,2.44,1,1.43-.11,2.11-1.49,2.95-.86,3.71-2,2.36-.29,1.69-1.55,3-3.78,4.72-4L193,438l0.17-4.07,4.21-6,1.77-5.16-0.08-2.41,0.59-1.83,0.51-5.21,1.26-3.61,5.48-6.82,1.85-1.66,1.35-3.38,2.53-2L216,394l3.37-6.25,1.85-4.87-1.69-1,1.6-1.83,1.35,0.8,1.43-2.52,1.94-4.47,1.26-5.9,0.51-6.7,1-5.62,1.52-4.81,0.59-3.9-0.51-2.52,1.18-1.6,5.06,3.67,0.76,1.89-0.08,1.55-1.85,6.3L234.54,361l0.84,4.36-1.18,5.33,1.26,0.52-1.26,2.64-13.57,29.57,8.09,3.84,5.65-5.67,1.85-4.3,2.95-2.23,1-2.12,3.79,1.78,1.43-3.32,4.38,1.15v-1.32l1.1,0.06-0.17-2.41,1.1,1.55,3-2.58,1.52-.11,4-3.09,1.1-1.95,2.36,1.2,0.84-1.72,1.6,0.74,0.93-2.69L265,378.1,258.39,371l-2.61-3.67-0.67-1.72-2.7-4.81-1.26-8.31-0.51-12.38,0.67-7.62-0.08-12.72-0.93-5.5-3.2-5-4.8-5.39-3.88-2.64-4.3-2.46-1.52-2.52-2.36-2.81-2.36-4.7L225,286.24l1.94-1.83,1.52,1.09,3.29,3.78,1.94,3.67,1.94,2.64,11,7.16,6.15,7.45,2.36,1.49,2.44,2.69,0.84,1.55,7.08,9.05,3.79,3.67,3.79,5.16,2.78,3.27,2,3.32,1.1,4.41-0.08,3.61-1.1,7.45L277,359.94l-0.17,2.29,0.67,9.11,1,6.48-1.26,3.5,1.26,4,0.59,3,0.25,3.67-0.42,4.18L277.68,401l-2,5.39-6.49,14.73L266.56,428l-1.35,4.13-2,9.68-0.84,5.9-2.7,7.68-1.85,9.46,0.51,3.09,1.94,3.78,2.7,3.27,3.71,3.55,6,4.53,3.54,3,7.5,8.14,2.53,1.95,2.44,1.38,3.79,1.38-0.67,4.64,0.59,2-1.85-.69-7.5-4.93-2.11-2.12-2.11-2.12-6.07-6.82-2-1.15-3.37-.17-2.53,1.09-6.07,6.07-4,2.12-6.66,2.06-4,.52,1.26,2.35L245,503l1,0.63,2.7-2,4.3,2.69,2-1.78v1.66l1.35,0.11v-1.83l2.44-2,4.89-3.32,1.94-.8,0.76-1.09,1.94-1.26,1.77,0.63,0.76-.52-0.42-3.5,1.77-.17,3,3.55-0.34.57,2.27,1.78ZM100.58,559.13l1.35,0.57,1-2.06-1.35-.63ZM232.44,331l-1.52,3.38-1-4.7,1.77-.86ZM279.7,499h0l0.25-.29Z" transform="translate(0 -0.34)"/><path class="cls-1" d="M444.68,266.7l1.6,1.6,37.83,17.13,4,0.63L501,286.76h-0.17l-2.78.06-4,1.15-13.14,4.47-7.58,1.49-2.86,1.2-2.44.57-4.89,1.83L457,301l-3.79,3.44-3.12,2.12-4,2.29-2.44,1-11.88,6.07-2.95,1.83h0l-1.52-3.09-2.53-.4,0.17-1.72-0.76-.92,0.17-2.92-1.43-3.55h0V305h0l0.08-.86-1.35-2.06v-1h0v-0.8h0v-0.17l0.76-2.58L419.23,295,411,292.2h0l-0.17-.23,1.35-2.75-3.79.06L404.57,288l-3.62-3-3.2-4.36L395.13,279l-2.78-.52-1.85.23,0.08,0.57-6.66,2.35,0.08,0.52-3.45.11-2.11-.86,1.85-2.69,0.67-.17,1.85-3.32,1.1-2.81,0.59,0.46,1.6-1.89,1.43-3.72,0.08-1.78,1.43-2.87,1.18-1.2,1,0.52,0.51-1.95,2.78-4.36,0.93,0.74,1.85-2.81-0.42-.23,4.47-7.62,4.21,2.46-1.85,2.52-2.27,4.18-1.52,1.26-1.26,2.46,2.61,1.55L407,262.4l2.44,0.63,4-.4,6.15-2.12,3.37-.23,6.49,1,1.85,0.74,2.11,1.6,4.63,4.81Z" transform="translate(0 -0.34)"/><path class="cls-9" d="M467.34,489.1l0.08,0.06-0.25.63-0.25.57-0.34.63-0.25.69-0.34.74-0.34.86L464.81,495l-0.17.52-0.08.11-0.08.23-0.08.11-0.08.17L463,499.08l-0.25.69-0.08.17-0.08.11-0.93,2.06-0.34.74-0.34.69-0.17.57-0.08.06-0.17.4-0.17.4-0.59,1.43-0.17.23-0.08.17h0l-0.08-.06-0.08.11L442,499.25l-1.85-1.38-0.76,1.32-0.93,3.9-2.44-.4L433.47,506,432,507.39,429.17,512l-0.51,3.09-1.52,2.12-0.67,2.18-3.29,4.93,0.93,1.55L424,527.38l1.18,3.09-0.42,2.18-1,.34L423,534.66l-0.76-.34-0.67,2.46,0.93,0.4-1.35,2.29-0.76,2.64-1.1,1.09,1,0.4-2.19,4.24-1.1,4.07,0.84,1.6-1.35,2.87-1-.46,0.08,1.89-0.84-.4v1.89l-1.1,2.58,0.59,0.11-2,5-1.1.74-2.19,5.1,2.19,0.74,8.34-.06L419.15,575l3.54,1.49-0.42.57-5.73,2.58-0.93,1.09-1.69,3.78,0.25,1.66H404l-5.22.17,0.93-3.44-0.17-4.47,0.42-1.38-0.76-1.72,1.35-3,1.26,0.4,1.52-3.27,0.76-1.78,2.61,0.06,2.61-6-2.44-.57,0.51-1,0.51-1.32-0.25-.11-0.84-.34-0.25.57-2.27-1,0.67-1.49,1,0.4,0.42-1.43,1.26,0.46,1.43-3.44,0.67-1.49L415.27,538l0.17-3.21-1.35-.46-0.42-.52,1.18-1.83-0.25-1.15,1.18-2.58v-1.78l0.84-.74,0.17-3.15-0.42-1,4.21-8.08,1.77-1-0.17-2.64-0.84-3.72,0.34-1.49,1.77-2.75,1.69-1.26,0.93-1.95,0.67,0.29,5.65-2.75-0.59-1,1.26-2.58-0.25-1.32,1.52-1.26L431,488.65l0.84-1.49,2.53,0.92,2.36-5.62-1.94-1.15,3.62-8.31,2.86,1.2,7.75,5.62,0.67,0.46,0.51,0.34,1.94,1.15,0.51,0.34,0.25,0.11,0.08,0.06,0.84,0.46,1.1,0.69,2.95,1,0.51,0.11,1.26,0.23,2.19,0.46,0.67,0.06,1.1,0.57,0.34,0.4,1.26,1.43Z" transform="translate(0 -0.34)"/><path class="cls-4" d="M343,356.38l-0.51,8.31v0.23l-0.08.63v0.23l-0.08,1.38v1.26l-0.08,1.15-0.08,1-0.08,1-0.08.57v0.29l-0.25.23-1,1.2-0.93,10.83v3.55l0.08,0.86,0.42,2.18,0.08,0.17,0.59,3.55v0.17l-0.08.74-0.17,1.38-0.08.4h0l-0.08.46L339.69,404l-0.17,1.2-0.08.23-6.91.29-7.16,1.78-4,1.43-3.79,1.72-3.79,2.18-3.12,2.75-4.47,5.27L303,427l-1.6,5-0.17,3-0.93,8.08,0.51,6.65,1.43,8.42,0.67,1.66,2.36,10.77,0.76,5.27-0.25,2.41-0.17,6.76-0.25,2.35-1.26,3.67-2.95,4-3.2,2.29-3.12,1.26-2.36.23-3.79-1.38-2.44-1.38-2.53-1.95-7.5-8.14-3.54-3-6-4.53L262.94,475l-2.7-3.27-1.94-3.78-0.51-3.09,1.85-9.46,2.7-7.68,0.84-5.9,2-9.68,1.35-4.13,2.61-6.88,6.49-14.73,2-5.39,1.26-4.81,0.42-4.18-0.25-3.67-0.59-3-1.26-4,1.26-3.5-1-6.48-0.67-9.11,0.17-2.29,0.84-4.07,1.1-7.45,0.08-3.61,7.58-3.61,9.1-3.21,3.54,0.23,1.77-.92,2.44,1.38,1.43,1.43-0.51.69,1.69,0.74,0.08-1,2,1.26-0.08,1,7.67,0.74,3.37,0.57-0.93,4-3.45,5.1-0.08,1.55,0.67,9.05L317,364l2.7,1.6,6,0.11,7.75-12.38,3.79,2.35Z" transform="translate(0 -0.34)"/><path class="cls-4" d="M242.13,271.57l5.73,2.81,2.11,2.41-1,1,1.77,2.35,2.11-1.66,1.6,0.34,2.44,1.78,17.61,10.49,4.13-6.59,0.51,0.52,4.63-2.12,2.11,3,3.79-1.55,4.63-1.2,5.56-3.55,2.44,1.72,1.35-3.27,0.08-1.49-1.1-1,2.44-4.24,7.84-11.63,2.11-1.6,1.1-2.41-2.61-2.18,1.1-1.55-2.19-1.2L319,240.63l2.11,1.43,2.61-3.84,4,1.6,1.43-1.38,0.17-2.35,1.77-3.67,0.25-2.81,0.76-1.38,0.51-3.55-2.19-1.95,2.78-11.4L336.41,199l7.5,6.25,16.26-26,0.17-3.44,1.6,0.52,10.28-16.73,5.48-11.23,0.76,1,7.75-12.21,3.71-6.3,1.18,0.69,4.47-6.65,0.84-.29,15.76,11,2.53-1.89,1.94,0.11,3,1.55,5.31-2.23,0.76-.63,6.15-8,4-5.9,2.95,2.12,0.59,1.66,1.43,2.12-1.1,4.41-1.52,4.07-4.13,7.22L431,145.44l-1.6,3.21-4.21,6-1.52,2.92-14.15,30.54-0.08.23-0.17-.34-6.82-3.27-1.6,3.5-0.67.52-1.77-.86L397,190.66l-2.61,3.67-0.51,1.83-2.53,5.62-0.51,2.87-1.1,2.23-2.7-2.52-5.31-3.67L377,210.43l-1.26.92-13,28.94-2.36.74L358,243.38l-7.92-1.95-3.45.34-4.55-1.95-1.94,1.6,0.76,2.58-1,.46,0.25,1.38-3.37,5,1.69,0.34,1.69,1.2,4.55,1.72,11.21-.06-0.59.23-5,7-3.2,4.18-2.36,3.67-4,3,0.42,1.49L339,276.73l-2,3.67-3.29,3.72-4.3,5.56-2.78-.4-1.26,1.78,1.69,2.64-2.36,3.15-2.7-.29-1.85,1.83,2.36,1.6-3.88,6.42-4,1,0.17,3.27-6.07,8.94-6.91,14.67-1-.63,0.84,1.89-3-3.38L296.13,330l-1-1.43-0.42-2.23,0.51-2.18L301.36,312l0.34-1.72-0.34-2L296,299.14l-4-5.1-5.22,1.2-5.65,2.58-2.7,1.78-3.79,1.72-5.81,1.2-8.26,1.15-2.95-.57-7.41-4.53-5.22-1.2-1.85-.86-5.65-4.13-4.89-6.82-3.2-3.38,3.71-2.64,1.85-3.21,1.43-.11,1.26-1.6,1.94-.29Z" transform="translate(0 -0.34)"/><path class="cls-7" d="M301.69,335.58l-1.35-.17L301,337.3l-1.77.92-3.54-.23-9.1,3.21L279,344.81l-1.1-4.41-2-3.32-2.78-3.27-3.79-5.16L265.55,325l-7.08-9.05-0.84-1.55-2.44-2.69-2.36-1.49-6.15-7.45-11-7.16-1.94-2.64-1.94-3.67-3.29-3.78L227,284.41l2.36-2.23,3.2,3.38,4.89,6.82,5.65,4.13,1.85,0.86,5.22,1.2,7.41,4.53,2.95,0.57,8.26-1.15,5.81-1.2,3.79-1.72,2.7-1.78,5.65-2.58,5.22-1.2,4,5.1,5.39,9.17,0.34,2L301.36,312l-6.15,12.15-0.51,2.18,0.42,2.23,1,1.43,2.53,2.18Z" transform="translate(0 -0.34)"/><path class="cls-2" d="M586.73,327l-6,5.39-2.86,2.18L573.5,337l-6.32,1.72-7.08.86-2.86.69-3.62,1.49L547,345l-4.13-4.18-1.26-1.15-1.26-.92-17.86-12.55-9.86-6.93-2.95-3.38L509,315l-1-1.6-5.14-9.46-0.84-1.6-0.25-.92-0.34-1.38-0.59-13.29H501l5.56-.11,22.33,7.28,8.43-.17,4.38,0.57,4-.63,10.7-2.87,5.65-1.95,2.86-1.83,2.27-2,3.71-2.35,5.22,6,3.12,2.87,1.6,0.8,4.21,1.09,2.36-.8,2.95,0.34,5-1.32,5.06-3.27,4.55-1.15h3.45l0.34,0.74-5.31,1.26-2.36.86-3.88,2.81L594,294.32l-1.18,1L592.12,297l0.25,1.43,1.26,1.49,2.86,1.95,1.6,2.12,0.34,2.29L598,307.9l-1.26,1.89-1.52.92-3.2.52-8.59.74-1.94.63-1.69,2.23L578.9,325l0.08,3.55,0.25-.06h0.34l0.59-.11,0.67-.29,0.42-.11,0.42-.29,0.34-.17,0.17-.11,0.51-.17,2.7-.57Zm0,0h0Z" transform="translate(0 -0.34)"/><path class="cls-5" d="M638.72,289.22l0.17,0.74-4.13,1.32-4.38,2.12-2.78,2.18-6.23,5.73-0.34.29-7.84,7.22-5.81,4.58-4.72,3.09-9.1,5.16L590,324.18l-3.2,2.87h-0.08l-1.35-.34-2.7.57-0.51.17-0.17.11-0.34.17-0.42.29-0.42.11-0.67.29-0.59.11h-0.34l-0.25.06L578.9,325l0.93-10.2,1.69-2.23,1.94-.63,8.59-.74,3.2-.52,1.52-.92L598,307.9l0.42-1.6L598.11,304l-1.6-2.12-2.86-1.95-1.26-1.49L592.12,297l0.67-1.72,1.18-1,3.12-1.38,3.88-2.81,2.36-.86,5.31-1.26,3.54,0.11,2.61,0.74,1.18,2.18,1.18,4.18,4.63,2.06,4.3-10.6,4.55,2,1.18-2.58,4.13-2.75,0.34-.8,3.71,1.6-2,5.27Z" transform="translate(0 -0.34)"/><path class="cls-6" d="M358.48,370.08l3.29,0.29,3.2,2,1.43,2.46,1.85,6,0.34,4.93,3.62,1.78,8.59-3.67,1.6,3.72,1.1,2.35,1.35,4.93-2.44,1,3.45,9.05,2.7,3.9-3.45,1.72-4,1.38-3.45.8-10.11-.34-2.7-1.6-6.57-1.78-5.06-.8-2.95-.63-3.12-.11-3.62-1.55-3.79-.4,0.59-4.24,2.36-4,1.85,0.17,1.69-8.31,0.51-5.21L350,378l6.15,0.34,0.08-2L353.43,375l1.77-3Zm0,0h0Zm23.93,17.48h0Z" transform="translate(0 -0.34)"/><path class="cls-3" d="M351.41,345.84l1.69,2.46-0.34,3.21,1.26,0.57,1.1,0.52-0.59,1.32L353.93,358l2.61,1.2,1.1,2.52,0.42,2.87-0.34,4.64,0.76,0.86h0L355.2,372l-1.77,3,2.78,1.38-0.08,2L350,378l-3.29,5.79L346.18,389l-1.69,8.31-1.85-.17-2.36,4-0.59,4.24h-0.25l0.08-.23,0.17-1.2,0.84-5.79,0.08-.46h0l0.08-.4,0.17-1.38,0.08-.74v-0.17l-0.59-3.55-0.08-.17-0.42-2.18-0.08-.86v-3.55l0.93-10.83,1-1.2,0.25-.23V372.2l0.08-.57,0.08-1,0.08-1,0.08-1.15v-1.26l0.08-1.38v-0.23l0.08-.63v-0.23l0.51-8.31,0.17-6.42,6.91,1.32,0.76-1.38L351,347.5l-0.51-1.66h0.93Z" transform="translate(0 -0.34)"/><path class="cls-1" d="M437.6,199.94h0.08l1.18-.11h0.08l0.34,0.06h0.08l0.93,0.23,0.76,0.17,1.1,0.23h0.17l4,1h0.17l2,0.17h0.34l1.43,0.11h0.08l2.36,0.11L453.1,202l0.59-.06L455,204.3l-0.17,1.55L449.31,216l-1.43,2.35-1.52,6.42v5.56l-1.6,9.86-2.27,6-0.59,4.13-1.6-.4-7-.8-2.36-1.26-0.08-.06-0.59-.23-0.67-.29-2.53-.69-0.67-.11-0.34-.11H426l-0.17-.06L425,245.9l-0.51-.29-2.7-1.15-2.36.23-0.17.06-0.17.06-0.25.11-0.08.06-2.19.8-0.67.23-3.62,1.15-3.62.11,7.25-15,3.12,1.32,3.54-6.25v1.66l2.86,2.12,0.51-.86L424.37,227l-0.25-2.18,1-4.58,1.18-1.43,2.19-3.78,1.1-2.81,3.54-2.81,1.18-2.87,0.42-6.65,1.18-.06,0.08,0.06h1.6Z" transform="translate(0 -0.34)"/><path class="cls-1" d="M444.68,266.7l-6.57,1.72-4.63-4.81-2.11-1.6-1.85-.74-6.49-1-3.37.23-6.15,2.12-4,.4L407,262.4l-5.73-2.29-2.61-1.55,1.26-2.46,1.52-1.26,2.27-4.18,1.85-2.52,1.43-1.55,1.6,0.69,3.62-.11,3.62-1.15,0.67-.23,2.19-.8,0.08-.06,0.25-.11,0.17-.06,0.17-.06,2.36-.23,2.7,1.15L425,245.9l0.84,0.34L426,246.3h0.08l0.34,0.11,0.67,0.11,2.53,0.69,0.67,0.29,0.59,0.23,0.08,0.06,2.36,1.26,7,0.8,1.6,0.4,0.59-4.13,2.27-6,1.6-9.86v-5.56l1.52-6.42,1.43-2.35,5.48-10.14L455,204.3l-1.26-2.35,6.82-2.64,1.43,6.25,1.77,6.25,2.11,6.25,0.08,0.23,3.29,7.34h0l-2.44,3-1.18,2.41L460,253.35l-2,5.9-2.36,4.53-2.95,1.83-4.89.46Z" transform="translate(0 -0.34)"/><path class="cls-4" d="M460.77,159h-0.08L459.42,184v4l0.34,5.21,0.76,6.13-6.82,2.64-0.59.06-0.34-.06-2.36-.11h-0.08l-1.43-.11h-0.34l-2-.17h-0.17l-4-1h-0.17l-1.1-.23-0.76-.17-0.93-.23h-0.08l-0.34-.06h-0.08l-1.18.11H436l-0.08-.06-1.18.06-4-.63-0.59-.86,1.26-.74-2.86-.8-0.42-1.15-3.88-1.83,0.84-2.29-0.59-2.75,0.25-1,2.53-4.18,2.78-3.21,1.35-4,0.42-2.92,2-2.69,2.78-6.07-0.25-3,2-4.47,2-3.21,0.17-3,1.35-3.84,2.61-2.29,2.95-4.41,0.67-.4,2.7,0.52,1.77-2.81-1.26-1.6-4-2.29L445,131.69l-1.43-2.29,10.53-14.1,4.63-5.62,0.51-.46,1.43-1.6,2.53-4.53v9.51l-1,17.71L460.68,159h0.08Z" transform="translate(0 -0.34)"/><path class="cls-4" d="M482.51,106.76l-0.17.34-3.54-3.38-2.61-1.95L473,99.88l-7.08-.23-2-.8-0.67,4.24-1.1,2.35-2.86,3.78-0.51.46-4.63,5.62-10.53,14.1,1.43,2.29,2.27,2.29,4,2.29,1.26,1.6-1.77,2.81-2.7-.52-0.67.4L444.51,145l-2.61,2.29-1.35,3.84-0.17,3-2,3.21-2,4.47,0.25,3-2.78,6.07-2,2.69-0.42,2.92-1.35,4-2.78,3.21-2.53,4.18-0.25,1,0.59,2.75-0.84,2.29-4-1.6-1.94.69-0.59,1.55-1.43-1.09,0.17-1.83-7-3.27,0.08-.23,14.15-30.54,1.52-2.92,4.21-6,1.6-3.21,3.12-5.16,4.13-7.22,1.52-4.07,1.1-4.41-1.43-2.12-0.59-1.66,0.08-1.78,5.31,3.67,3.62-5,2-3.38,0.59-3.44,1.94-3.55L455,103.9l0.08-1.6,3.71-5.21-2.61.06-3.54-2.06-3.71.23,0.42-3.55,5.81-2.81L458.58,87l1.26-1.49,1.1-2.75,3.12-2.18,3.12,0.57,1.26-.34,3.29-2.52,2.44-3,19.88-26.42,3.88-4.53,4.3-4.64L505,37.13l4.38-3.61L513,30.95,516,28.42l0.76-1.2V22.58L518.65,20l2,3.84,1.69,1.78,5,3.84,1.77-.4L526,31.23l-3.54,1.66-2.7,3.84L517.22,39l-0.76,9.91-0.34,7.22-9.52-.86V56l3.29,2.18-2.36,3.44-0.59-.4-1.52,2.58,1.18,0.69-1.35,2.29-0.42,1.78-1.1-.57-5.56,8.19-0.93.11-3-3.21-3-.06L486,88.14l-1.6-.46-0.59,3-0.84.52-0.34,1.95,2.61,1.09L482,97.71l1.1,3.67-0.34.06,2,6.13Z" transform="translate(0 -0.34)"/><path class="cls-1" d="M768.56,377.3l-6.66-2.87,9.27-6.7,2.95-1.89,4.38-1.55-1,.57-2.11,4.64-3-1.38-0.08,5.5-2.7,3.21Zm38.5-31.52,0.59-2.41,0.25-.29,0.17-.23,0.51-.34,4.21-2.12-0.17-.34-2.44.86L800,344.12l-19.63,6.36-0.76-1.09,1.43-1.32,4-1.26-1.35-4.36,2.86,0.74,2.78,0.11,2.53-5.9,4.21,1.83,2.7-6,1.94,0.34,4.13-.92-0.25-.57,9.94,0.46-0.76-1.15L813.46,329l-9.44-.4,0.17-2.06,1.52-3.09,8.09,3.38,5.06-1.15,2.44,2.69-4,4.18,2.27-.23,2.36-3.32,0.59,0.69,1.52-1,1.26,1.49,1.43-.4,5.06-.4,1.6-1.32-1.77-5.85-0.25-1.49,2.53-4.64,1.1,0.74,1-4.81,9.77-6.42-2.19-4.36-0.84-10.37,5.81,0.11,4.72-10.54,2.19,0.46,3.54,4,2.27,1-9.52,25.56-2,4.18-3.37,5-4.13,4.47L846,326.7l-2.27,5,6.4,2.64-1.43,3.32,1.1,1.09,2.7,1.15,0.34-.69,3.71,1.95-1.94,4.24-16.6-7-2.11-.34-0.17-.63-3.79-.17-1.69.29-6.4-.52-4.63,1,1.35,1.49,1.26,0.4,1,3,1.1,0.63-2.44,5.27-1.77-.4-1.6-1.26L812,346v-0.29Z" transform="translate(0 -0.34)"/><path class="cls-2" d="M428.25,468.7l0.42,0.11,2.27,1.09,1.18,0.52-10.78,22.86-4.8,8.6-4,8.42L400.19,505l0.42-1.32,6.74-15.24,8.93,3.9,0.93-2.12,0.84,0.4,1.85-4.07-0.34-.4-6-2.64,0.93-2.18-5.65-2.46,0.51-1.2-3.12-1.32-2.7-1.55-13.23-5.56-1-.69-3.2,1.15L390.75,459l2.61-5.67h0l27.55,12.15,0.34,0.17,1.26,0.57,0.76,0.34,1.94,0.86,0.76,0.34Z" transform="translate(0 -0.34)"/><path class="cls-5" d="M415.78,526.47l-2.19,2.41-3.62-.11L406.17,527l-0.59-.34,3.29-8.37,3.71-8,4-8.42,4.8-8.6,10.78-22.86,3.71,1.32,2.61,1.26-3.62,8.31,1.94,1.15-2.36,5.62-2.53-.92L431,488.65l3.29,1.43-1.52,1.26,0.25,1.32-1.26,2.58,0.59,1L426.73,499l-0.67-.29-0.93,1.95-1.69,1.26-1.77,2.75-0.34,1.49,0.84,3.72,0.17,2.64-1.77,1-4.21,8.08,0.42,1-0.17,3.15Z" transform="translate(0 -0.34)"/><path class="cls-6" d="M382.41,387.56l-1.6-3.72-8.59,3.67-3.62-1.78-0.34-4.93-1.85-6L365,372.37l-3.2-2-3.29-.29h0l-0.76-.86,0.34-4.64-0.42-2.87,2.95-.29,6.32,2.81,1.85,3.55,3.29,1.43L371.37,365l-0.84-3-0.84-1.38-0.51-5.27v-8.14l4.72,0.86,4.38-.46,2.11-2.46v-0.06h0v-0.23h0.67l-0.25,1.32,4.89-.74,1.1-1,1.35,0.23,2.61-1.38h0l0.17-.17v0.06l1.1,0.69,1.1,6.36-4.38.52-2.44,1.49-0.42.74,2,3h0.67v-2.52h2.36l4.8-1.66H400v6.7l0.59,8.6,1.52,14.61L402,385.55l-2.36,9.51-1.6,3.61-3.45,4.93L392.35,406l-3.79,2.81-2.7-3.9-3.45-9.05,2.44-1-1.35-4.93Z" transform="translate(0 -0.34)"/><path class="cls-9" d="M276.08,517.64l-1.52-4.58,3.71-2,0.67,1-1.18.92,0.93,1-0.76.69,0.76,1.2-1.1,1,0.59,1.26,2.27-2.18,1.43-2.06,0.84,0.52-1,.86,1.6,2.23,0.08-1.66,0.84-.34,2.19,1.66,1.43,1.89v1.49l2.44-.57,0.17,1.2-1.35,2.92,2.7,1.26v-1.15l-1.1-3.21,2.7-.69,0.84-5.56,5.22,1.83,3.62-.86,3.45,2.69,1.6,0.69,0.34,0.17,0.59,0.23,0.51,0.23,0.59,0.23,0.17,0.11-4.47,9.68-2.27.11v6.7l2,0.11,1.1-.8,0.59,6.36-1.26,1.72,0.59,2.75,2,1.49,0.42,2.52-2.53-.17-1-2.12L305,550.59l-1.77-.74-0.08,1.66,3.62,1.49-0.42,1.43-3.12-1.38-1.85.57L301,559l1.77,0.74,0.17-3.09,1.1,1.49,1.26-.17-1-2.69,4.47,1.83-1.18,2.58,2.19,1,1.52,0.11,0.34,1.38,1.52,1,1.35,2.18-6.15,14.38-1.94-.34-1.1,3.38-0.51-.06L304,589.22l-13.4.29-23,.86,0.42-1.09-1.1-1-0.17-2.87,0.51-3-5.39-.46-1.52-1.09,1.26-3.09,1.43-1.09,0.76-3.55-1.6-1,1.35-.92,0.76,0.4,1.52-2.75-0.25,2.64,2.27-.86,2.36,2.23,0.76-.06-0.34-3.27,1-2.12L271.11,566l0.51-5.1-0.34-5,0.84-2.52,1.26-6.3,0.08-3.9-1.18-1.2,1.18-1.95,0.42-2.23-0.67-2.81,3.62-1-0.25,2.87,2.7,0.17,0.76-1.49,0.59,1.6,1.52,0.8-1.94-.11L279.79,539l-3.29-.23-0.08.69,4.3,0.29L280,538.39l2,0.06,1.52,0.74,0.51-2.06-1.77-.06v-1.2l1.52,0.06-0.59-2.23,0.08-2-1.18-.69,0.59-2.69-0.42-2.64,0.25-1.55L282,521l0.34-1.38-1-.17-0.84,1.43,0.25,3.38-0.34.86,1,2.41L280,528l-2.53-.17-1.26-5.16Zm0.17,24.53-0.51,6.48-1.85,3.72,1.18-.74,1.43-2.81,1.77-5.27,1.35,2.06,1.77,0.57,1.6-1.89-0.76-1.89Zm-1.69-32.89-0.93-.69Zm5.31,3.5,0.76,0.17Z" transform="translate(0 -0.34)"/><path class="cls-3" d="M412.15,289.22L410.81,292,411,292.2h0l8.26,2.81,3.12,2.58-0.76,2.58v0.17h0v0.8h0v1l1.35,2.06-0.08.86h0v0.06h0l1.43,3.55-0.17,2.92,0.76,0.92-0.17,1.72,2.53,0.4,1.52,3.09-4.55,2.69-4.47,3-6.4,4.76-4.47,4.47-2.61,3.21-3.54,6.13-1.26,2.75L400.27,349,400,351.86h-4.3l-4.8,1.66h-2.36V356h-0.67l-2-3,0.42-.74,2.44-1.49,4.38-.52-1.1-6.36-1.1-.69V343.2l-0.17.17h0l-2.61,1.38-1.35-.23-1.1,1-4.89.74,0.25-1.32h-0.67v0.23h0v0.06l-2.11,2.46-4.38.46-4.72-.86v8.14l0.51,5.27,0.84,1.38,0.84,3,0.67,4.18-3.29-1.43-1.85-3.55-6.32-2.81-2.95.29-1.1-2.52-2.61-1.2,0.59-4.07,0.59-1.32-1.1-.52-1.26-.57,0.34-3.21-1.69-2.46,3.71,0.4,0.42-4.47,0.42,0.06,1.35-10.2,1.6-1.72,2.36-.06,2.95,2.58,3.45-4.18-2.86-2.18,6.15-8-0.59-1.6-1.6,1L368.34,316l-1.18-1.09,1.85-2.12,2.11-1.09-0.59-1.38,4.13-9.23,2.36-5-0.84-.46,0.42-1.32-1.52-.86,1.43-3.21h1.1l0.34,1.6,7.33-3.21-0.08-1.83-1.18-4.7-0.08-.52,6.66-2.35-0.08-.57,1.85-.23,2.78,0.52,2.61,1.66,3.2,4.36,3.62,3,3.79,1.32Z" transform="translate(0 -0.34)"/><path class="cls-8" d="M768.56,377.3l-0.76,3.21L765,384.58l-0.93,1.95-3.29-.69-1.1-1.15-5.48-1.15-1.69-.57,1.69-4.07-2-1.15-6.91-.52-2.53-.46,0.59-2.52-0.59-1.72,1.94-.06,0.84-1,0.59-.17h0.08l3.45-.52,3.71-1.43,21.4-11.58,6.66-3.21,0.42,0.46-3.54,8.19,0.17,1-4.38,1.55-2.95,1.89-9.27,6.7Z" transform="translate(0 -0.34)"/><path class="cls-1" d="M807.06,345.78l-4.47.34-5.06,1-5.39,1.78-6.66,3.44-1.77.57-2.27,1.72-6.66,3.21-21.4,11.58-3.71,1.43-3.45.52h-0.08l-0.59.17-0.34-.23-20.47,2.52-7.16,5.44-2.86,2.52-2.19,2.29-0.25.34-1.6,2-2.11,3.09-2.7,4.36-1.35,2.06-1,1.43-2.86,3.21-25.19-12.89-6.23,14.21-5.14-2.35-1.94,4.13,0.67,1.66L661.13,409l-4.89-2.12-1.43,2.18,0.59,1.38-1.85,4,8.85,3.9-6.07,3.78L653,424.52,637.2,436.67l-23.68-10.2-1.1-.8L605.94,419l-2.44-1.55-13.65-1.89-6.07-.92-23.17-3.09,6.32-14.67,0.76-2.12,0.84-5.39,2.11-2.18,2.44-2.46,1-4.3,1.6-3.72,7.5,0.06,5.73,1,6.4,2L611.25,385l4.3-10,2.78-6.19,1.35-5,5.65-.34,4.63,0.69,35.47,12.55,2.11,1.49,1.18,1.43,1.69,3.72,1.52,2.06-0.34-2.69L690,384.64l6-.11,2.78-.52,2.61-1.26,11.21-6.3,2.44-1.09,3.2-.8,6.57-1,5.48-3.84,5.9-3.55,8.59-4,4.13-1.55,9.35-3.09,22.08-7.11L800,344.12l10.19-3.21,2.44-.86,0.17,0.34-4.21,2.12-0.51.34-0.17.23-0.25.29Z" transform="translate(0 -0.34)"/><path class="cls-1" d="M697.11,403.78l-10.7,7.91-15,11.12-3.62-4.41,2.11-1.49-1.6-1.83-5.9,3.27-8.85-3.9,1.85-4-0.59-1.38,1.43-2.18,4.89,2.12,1.69-3.72-0.67-1.66,1.94-4.13,5.14,2.35,6.23-14.21,25.19,12.89-0.51.52-0.08.06-0.08.11-0.08.06Z" transform="translate(0 -0.34)"/><path class="cls-9" d="M541.15,511.63l-0.34.4-0.25.29-1.85-3.38-1.18-.69-4.21-.52-1.94-2.23,0.08-7.45,0.42-2.41,0.93-1.72-5.9-2.52-0.42,1.09-1-.46-0.59,1.38-3.71-1.66-1,2.18-12.89-5.62v-0.23l-7.92-3.55-0.84-.11L491,481.2V481l0.08-.29v-0.11l0.08-.17,0.08-.34V480l0.17-.34,0.08-.17v-0.11l0.17-.23,0.51-1.32,0.08-.11,0.67-1.55L493,476l0.42-.74,0.17-.11,0.34-.29,0.08-.06,0.08-.06,0.51-.34v-0.06l0.17-.06,0.08-.06,0.17-.06,0.17-.06h0.08l0.17-.06h0.42l1-.11,1.1-1.6,0.08-.17,0.08-.17,0.08-.11,0.08-.11,1.18-2.23,0.08-.11,0.08-.11,0.08-.11v-0.06l0.08-.11,0.08-.06,0.08-.11,0.08-.06,0.17-.11,0.17-.11,0.59-.63,0.08-.23v-0.11h0v-0.34L501,465.27v-1.32l0.08-.29,0.08-.23,0.17-.29,0.34-.4,0.25-.29,0.17-.34,0.25-.29,0.25-.29,0.08-.17,0.08-.4,0.08-.23-0.08-.29-0.08-.4-0.08-.4-0.08-.46v-0.11l-0.08-.06,0.08-.29v-0.29l0.17-.74v-0.29l0.17-.34,0.17-.29,0.67-2.23,0.08-.63,0.25-1.15,0.08-.4,0.34-1.89v-0.11l0.17-.06,2.61-1.15,0.17-.06,0.17-.11,0.25-.06,0.76-.34,0.17-.11,0.25-.11,0.25-.11,0.17-.06,0.17-.11,0.17-.06,0.25-.11,0.34-.11,0.17-.11,0.25-.11,0.25-.11,0.25-.11,0.17-.06,0.76-.4,0.17-.11,0.17-.11,0.08-.06,0.17-.11,0.08-.11,0.17-.11,0.08-.11,0.25-.34,0.17-.23,0.08-.11,0.17-.17,1.35-1.89,0.34-.4,0.34-.4,5.06-.8,3.79-2.06,2.11-1.83,2.95-4.47,2.86-6.3V427l2.61-4.76,1.85,0.92,5,0.23,3.12,1,3.54,3.09,12.22,6.65-0.93,1.6-1.52,1h-1.18l-4-1.2h-1.26l-1.35,1.38-4.63-4-2-.69-1.35.46-1.43,1.43-0.84,3.15,2.27,8.42,0.08,3.27-0.51,2.75-4,12.21-1.43,6.53v9.05l0.51,0.52-0.59,13.07,2.44,13.18L539,507.9Z" transform="translate(0 -0.34)"/><path class="cls-4" d="M580.24,480.8l-2.7,2.06-0.42.29-0.25.29-0.34.17-27.38,21.2-6.4,5.1-1.6,1.72L539,507.9l0.08-1.6-2.44-13.18,0.59-13.07-0.51-.52v-9.05l1.43-6.53,4-12.21,0.51-2.75-0.08-3.27-2.27-8.42,0.84-3.15,1.43-1.43,1.35-.46,2,0.69,4.63,4,1.35-1.38h1.26l4,1.2h1.18l1.52-1,0.93-1.6-12.22-6.65-3.54-3.09-3.12-1-5-.23-1.85-.92,2.95-4.13,1.69-3.67,1.18-1.89,2.27-1.78,1.35-.57,3.88-.29,12.13,1.66-2.53,5.9,2.19,4.07,6.57,19.94,7.33,22.69,1.1,3.9,0.34-.74,0.67,4,0.51,7.39,3.37,1.49Z" transform="translate(0 -0.34)"/><g id="legend"><path class="cls-10" d="M0.5,32V20.5h424V32" transform="translate(0 -0.34)"/><rect class="cls-11" y="20.66" width="47.11" height="11"/><rect class="cls-12" x="47.11" y="20.66" width="47.11" height="11"/><rect class="cls-13" x="94.22" y="20.66" width="47.11" height="11"/><rect class="cls-14" x="141.33" y="20.66" width="47.11" height="11"/><rect class="cls-15" x="188.44" y="20.66" width="47.11" height="11"/><rect class="cls-16" x="235.56" y="20.66" width="47.11" height="11"/><rect class="cls-17" x="282.67" y="20.66" width="47.11" height="11"/><rect class="cls-18" x="329.78" y="20.66" width="47.11" height="11"/><rect class="cls-19" x="376.89" y="20.66" width="47.11" height="11"/><line class="cls-10" x1="47.61" y1="19.66" x2="47.61" y2="31.66"/><text class="cls-20" transform="translate(44.83 41.76)">7</text><line class="cls-10" x1="94.72" y1="19.66" x2="94.72" y2="31.66"/><text class="cls-20" transform="translate(89.53 41.76)">1<tspan x="4.82" y="0">1</tspan></text><line class="cls-10" x1="141.83" y1="19.66" x2="141.83" y2="31.66"/><text class="cls-20" transform="translate(136.27 41.76)">14</text><line class="cls-10" x1="188.94" y1="19.66" x2="188.94" y2="31.66"/><text class="cls-20" transform="translate(183.38 41.76)">17</text><line class="cls-10" x1="236.06" y1="19.66" x2="236.06" y2="31.66"/><text class="cls-20" transform="translate(230.49 41.76)">20</text><line class="cls-10" x1="283.17" y1="19.66" x2="283.17" y2="31.66"/><text class="cls-20" transform="translate(277.61 41.76)">24</text><line class="cls-10" x1="330.28" y1="19.66" x2="330.28" y2="31.66"/><text class="cls-20" transform="translate(324.72 41.76)">27</text><line class="cls-10" x1="377.39" y1="19.66" x2="377.39" y2="31.66"/><text class="cls-20" transform="translate(371.83 41.76)">30</text><text class="cls-21" transform="translate(0 13.66)">V<tspan x="9.3" y="0">oter turnout by p</tspan><tspan x="132.78" y="0">r</tspan><tspan x="138.25" y="0">ecinct (%)</tspan></text></g></svg>